<svg xmlns="http://www.w3.org/2000/svg" xmlns:xlink="http://www.w3.org/1999/xlink" width="500" zoomAndPan="magnify" viewBox="0 0 375 374.999991" height="500" preserveAspectRatio="xMidYMid meet" version="1.0"><path fill="#b3b3b3" d="M 270.46875 325.496094 C 256.324219 329.953125 241.894531 333.082031 227.175781 334.882812 C 226.910156 335.65625 226.585938 336.40625 226.207031 337.128906 C 225.828125 337.851562 225.390625 338.542969 224.90625 339.199219 C 224.417969 339.855469 223.882812 340.472656 223.300781 341.046875 C 222.714844 341.617188 222.09375 342.144531 221.429688 342.621094 C 220.765625 343.097656 220.066406 343.519531 219.335938 343.890625 C 218.605469 344.257812 217.851562 344.570312 217.074219 344.820312 C 216.296875 345.074219 215.503906 345.265625 214.695312 345.394531 C 213.890625 345.523438 213.074219 345.589844 212.257812 345.59375 L 171.792969 345.59375 C 170.972656 345.589844 170.160156 345.523438 169.347656 345.394531 C 168.539062 345.261719 167.742188 345.070312 166.964844 344.816406 C 166.183594 344.5625 165.425781 344.25 164.695312 343.878906 C 163.964844 343.507812 163.265625 343.078125 162.601562 342.597656 C 161.9375 342.121094 161.3125 341.589844 160.730469 341.011719 C 160.148438 340.433594 159.613281 339.816406 159.125 339.15625 C 158.640625 338.496094 158.207031 337.800781 157.828125 337.074219 C 157.449219 336.34375 157.132812 335.59375 156.871094 334.816406 C 139.359375 332.800781 122.136719 329.367188 105.195312 324.511719 C 120.140625 351.988281 150.527344 369.546875 188.113281 369.546875 C 225.230469 369.515625 255.339844 352.394531 270.46875 325.496094 Z M 270.46875 325.496094 " fill-opacity="1" fill-rule="nonzero"/><path fill="#e5e5e5" d="M 156.050781 329.867188 L 156.050781 321.574219 C 156.050781 319.78125 156.351562 318.042969 156.945312 316.355469 C 136.664062 314.078125 116.800781 309.851562 97.351562 303.671875 C 98.546875 308.898438 100.238281 313.960938 102.425781 318.855469 C 119.96875 324.210938 137.851562 327.96875 156.066406 330.132812 C 156.066406 330.054688 156.050781 329.972656 156.050781 329.867188 Z M 156.050781 329.867188 " fill-opacity="1" fill-rule="nonzero"/><path fill="#b3b3b3" d="M 107.484375 336.328125 C 103.953125 340.039062 100.34375 343.894531 98.113281 348.660156 C 96.230469 352.683594 95.054688 358.683594 97.472656 363.449219 C 100.535156 369.492188 107.886719 370.617188 113.277344 368.597656 C 119.152344 366.410156 124.074219 361.222656 128.429688 356.402344 C 125.214844 354.203125 122.152344 351.808594 119.246094 349.210938 C 114.882812 345.320312 110.960938 341.027344 107.484375 336.328125 Z M 107.484375 336.328125 " fill-opacity="1" fill-rule="nonzero"/><path fill="#e6e6e6" d="M 124.992188 167.984375 C 145.421875 171.949219 166.039062 173.929688 186.84375 173.929688 C 207.652344 173.929688 228.269531 171.949219 248.695312 167.984375 C 286.105469 160.753906 309.65625 149.273438 316.71875 134.792969 C 334.460938 98.324219 303.457031 57.296875 303.140625 56.886719 C 302.761719 56.390625 302.609375 55.835938 302.683594 55.21875 L 308.597656 6.164062 C 296.230469 8.339844 249.445312 16.316406 222.652344 16.523438 L 216.527344 23.820312 C 216.078125 24.355469 215.503906 24.625 214.808594 24.632812 L 186.902344 25.296875 C 186.863281 25.304688 186.824219 25.304688 186.789062 25.296875 L 158.882812 24.632812 C 158.195312 24.617188 157.628906 24.347656 157.183594 23.820312 L 151.0625 16.523438 C 124.273438 16.316406 77.480469 8.339844 65.136719 6.152344 L 71.042969 55.234375 C 71.117188 55.851562 70.964844 56.40625 70.585938 56.898438 C 70.28125 57.28125 39.246094 98.308594 56.984375 134.792969 C 64.035156 149.273438 87.554688 160.753906 124.992188 167.984375 Z M 94.53125 70.066406 C 104.558594 53.550781 125.238281 39.597656 148.828125 45.648438 C 155.039062 47.234375 161.324219 48.429688 167.6875 49.230469 C 174.046875 50.03125 180.433594 50.433594 186.84375 50.433594 C 193.257812 50.433594 199.644531 50.03125 206.003906 49.230469 C 212.367188 48.429688 218.652344 47.234375 224.863281 45.648438 C 248.457031 39.589844 269.128906 53.550781 279.15625 70.066406 C 288.617188 85.640625 288.339844 102.195312 278.390625 113.257812 C 270.261719 122.316406 260.3125 125.230469 250.839844 125.230469 C 241.65625 125.230469 232.992188 122.484375 226.921875 119.945312 C 225.605469 119.398438 224.246094 119 222.847656 118.742188 C 221.445312 118.480469 220.03125 118.371094 218.609375 118.410156 C 217.183594 118.449219 215.78125 118.632812 214.394531 118.96875 C 213.011719 119.300781 211.675781 119.773438 210.390625 120.386719 C 200.539062 125.046875 187.941406 124.878906 186.824219 124.847656 C 185.707031 124.816406 173.101562 125.046875 163.253906 120.386719 C 161.96875 119.773438 160.632812 119.300781 159.25 118.964844 C 157.867188 118.632812 156.460938 118.445312 155.039062 118.40625 C 153.613281 118.371094 152.203125 118.480469 150.804688 118.738281 C 149.402344 118.996094 148.046875 119.398438 146.730469 119.945312 C 134.390625 125.105469 111.300781 131.097656 95.285156 113.257812 C 85.371094 102.226562 85.074219 85.671875 94.53125 70.097656 Z M 94.53125 70.066406 " fill-opacity="1" fill-rule="nonzero"/><path fill="#b3b3b3" d="M 144.984375 126.230469 C 146.597656 125.5625 148.261719 125.070312 149.976562 124.753906 C 151.691406 124.4375 153.421875 124.300781 155.167969 124.34375 C 156.910156 124.390625 158.632812 124.617188 160.328125 125.023438 C 162.023438 125.429688 163.660156 126.007812 165.234375 126.757812 C 174.328125 131.058594 186.664062 130.785156 186.789062 130.785156 L 186.910156 130.785156 C 187.023438 130.785156 199.371094 131.058594 208.460938 126.757812 C 211.867188 125.144531 215.453125 124.335938 219.222656 124.335938 C 222.515625 124.328125 225.675781 124.960938 228.714844 126.230469 C 242.414062 131.960938 261.5625 135.65625 274.984375 120.707031 C 285.179688 109.347656 281.804688 93.75 275.246094 82.941406 C 266.398438 68.359375 247.210938 55.140625 226.003906 60.585938 C 219.605469 62.222656 213.132812 63.453125 206.582031 64.277344 C 200.03125 65.105469 193.453125 65.515625 186.847656 65.515625 C 180.246094 65.515625 173.667969 65.105469 167.117188 64.277344 C 160.566406 63.453125 154.089844 62.222656 147.695312 60.585938 C 126.484375 55.148438 107.300781 68.359375 98.445312 82.949219 C 91.886719 93.757812 88.496094 109.355469 98.710938 120.714844 C 112.136719 135.65625 131.285156 131.960938 144.984375 126.230469 Z M 144.984375 126.230469 " fill-opacity="1" fill-rule="nonzero"/><path fill="#b3b3b3" d="M 316.71875 136.320312 C 334.460938 99.863281 303.457031 58.835938 303.140625 58.421875 C 303.140625 58.421875 329.09375 97.765625 304.671875 128.273438 C 277.617188 162.085938 137.285156 166.257812 82.761719 137.578125 C 39.710938 114.964844 70.5625 58.453125 70.5625 58.453125 C 70.28125 58.867188 39.246094 99.894531 56.984375 136.320312 C 64.035156 150.855469 87.554688 162.332031 124.992188 169.539062 C 145.421875 173.5 166.039062 175.480469 186.84375 175.480469 C 207.652344 175.480469 228.269531 173.5 248.695312 169.539062 C 286.105469 162.332031 309.65625 150.855469 316.71875 136.320312 Z M 316.71875 136.320312 " fill-opacity="1" fill-rule="nonzero"/><path fill="#4d4d4d" d="M 144.984375 115.75 C 146.597656 115.085938 148.261719 114.59375 149.976562 114.277344 C 151.691406 113.960938 153.421875 113.824219 155.167969 113.871094 C 156.910156 113.917969 158.632812 114.144531 160.328125 114.550781 C 162.023438 114.957031 163.660156 115.535156 165.234375 116.285156 C 174.328125 120.585938 186.664062 120.304688 186.78125 120.3125 L 186.910156 120.3125 C 187.023438 120.3125 199.371094 120.585938 208.453125 116.285156 C 211.863281 114.671875 215.453125 113.863281 219.222656 113.863281 C 222.511719 113.855469 225.671875 114.488281 228.707031 115.75 C 242.414062 121.488281 261.5625 125.183594 274.976562 110.234375 C 285.179688 98.875 281.804688 83.277344 275.246094 72.46875 C 266.398438 57.878906 247.210938 44.667969 225.996094 50.105469 C 219.597656 51.742188 213.125 52.972656 206.574219 53.796875 C 200.023438 54.625 193.449219 55.035156 186.84375 55.035156 C 180.242188 55.035156 173.664062 54.625 167.113281 53.796875 C 160.5625 52.972656 154.089844 51.742188 147.695312 50.105469 C 126.484375 44.660156 107.300781 57.878906 98.445312 72.46875 C 91.886719 83.277344 88.496094 98.875 98.710938 110.234375 C 112.136719 125.183594 131.277344 121.480469 144.984375 115.75 Z M 144.984375 115.75 " fill-opacity="1" fill-rule="nonzero"/><path fill="#4d4d4d" d="M 274.976562 110.234375 C 261.828125 124.871094 243.199219 121.625 229.554688 116.101562 C 229.273438 115.996094 228.988281 115.875 228.707031 115.757812 C 225.671875 114.488281 222.511719 113.855469 219.222656 113.863281 C 215.453125 113.859375 211.867188 114.667969 208.460938 116.285156 C 200.042969 120.257812 188.875 120.316406 187.140625 120.304688 L 186.78125 120.304688 C 183.105469 120.316406 179.453125 120.019531 175.828125 119.414062 C 172.15625 118.851562 168.625 117.808594 165.234375 116.285156 C 164.390625 115.890625 163.523438 115.542969 162.640625 115.238281 C 159.765625 114.238281 156.804688 113.785156 153.761719 113.875 C 150.71875 113.964844 147.789062 114.59375 144.976562 115.757812 C 131.285156 121.480469 112.136719 125.175781 98.710938 110.234375 C 88.511719 98.875 91.886719 83.277344 98.445312 72.46875 C 107.300781 57.886719 126.484375 44.667969 147.6875 50.105469 C 161.839844 53.730469 176.214844 55.355469 190.820312 54.972656 C 196.054688 54.851562 201.289062 54.460938 206.496094 53.816406 C 210.761719 53.273438 215.003906 52.558594 219.222656 51.683594 C 221.519531 51.207031 223.746094 50.6875 225.996094 50.105469 C 237.75 47.09375 248.878906 49.808594 257.980469 55.300781 C 261.496094 57.4375 264.714844 59.957031 267.632812 62.859375 C 270.550781 65.761719 273.089844 68.964844 275.246094 72.46875 C 281.804688 83.277344 285.1875 98.875 274.976562 110.234375 Z M 274.976562 110.234375 " fill-opacity="1" fill-rule="nonzero"/><path fill="#e6e6e6" d="M 104.328125 213.417969 C 99.644531 207 69.949219 167.929688 48.390625 179.429688 C 45.101562 181.179688 43.078125 184.585938 42.375 189.527344 C 39.238281 211.75 63.390625 260.9375 90.675781 288.347656 C 90.605469 286.820312 90.570312 285.289062 90.570312 283.757812 C 90.570312 257.75 90.570312 233.117188 103.066406 215.125 C 103.472656 214.558594 103.894531 213.984375 104.328125 213.417969 Z M 104.328125 213.417969 " fill-opacity="1" fill-rule="nonzero"/><path fill="#e6e6e6" d="M 206.585938 191.484375 C 215.769531 193.183594 222.75 196.417969 222.75 201.382812 C 222.75 209.164062 205.601562 212.707031 189.65625 212.707031 C 173.714844 212.707031 156.570312 209.164062 156.570312 201.382812 C 156.570312 196.097656 164.476562 192.769531 174.535156 191.179688 C 95.152344 195.097656 95.144531 234.523438 95.144531 283.742188 C 95.136719 288.695312 95.535156 293.613281 96.339844 298.5 C 98.75 299.363281 123.890625 308.140625 159.296875 312.027344 C 160.027344 311.0625 160.859375 310.195312 161.792969 309.425781 C 162.726562 308.65625 163.734375 308.003906 164.820312 307.46875 C 165.902344 306.929688 167.035156 306.527344 168.210938 306.253906 C 169.390625 305.976562 170.585938 305.84375 171.792969 305.84375 L 212.257812 305.84375 C 213.46875 305.839844 214.664062 305.976562 215.847656 306.25 C 217.027344 306.523438 218.160156 306.929688 219.246094 307.46875 C 220.332031 308.007812 221.339844 308.660156 222.273438 309.433594 C 223.207031 310.207031 224.039062 311.074219 224.769531 312.039062 C 243.660156 309.890625 262.011719 305.503906 279.832031 298.882812 C 280.671875 293.886719 281.089844 288.855469 281.085938 283.789062 C 281.085938 256.363281 280.167969 234.066406 268.578125 217.785156 C 257.558594 202.289062 237.652344 193.773438 206.585938 191.484375 Z M 259.578125 268.359375 C 259.578125 268.664062 259.519531 268.957031 259.40625 269.238281 C 259.289062 269.519531 259.121094 269.765625 258.90625 269.984375 C 258.691406 270.199219 258.441406 270.363281 258.160156 270.480469 C 257.878906 270.597656 257.585938 270.65625 257.285156 270.65625 L 204.582031 270.65625 C 204.277344 270.65625 203.984375 270.597656 203.703125 270.480469 C 203.421875 270.363281 203.171875 270.199219 202.957031 269.984375 C 202.742188 269.765625 202.578125 269.519531 202.460938 269.238281 C 202.34375 268.957031 202.285156 268.664062 202.285156 268.359375 L 202.285156 244.125 C 202.285156 243.820312 202.34375 243.527344 202.460938 243.246094 C 202.578125 242.964844 202.742188 242.71875 202.957031 242.503906 C 203.171875 242.285156 203.421875 242.121094 203.703125 242.003906 C 203.984375 241.886719 204.277344 241.828125 204.582031 241.828125 L 257.289062 241.828125 C 257.59375 241.828125 257.886719 241.886719 258.167969 242.003906 C 258.449219 242.121094 258.699219 242.285156 258.914062 242.503906 C 259.128906 242.71875 259.296875 242.964844 259.410156 243.246094 C 259.527344 243.527344 259.585938 243.820312 259.585938 244.125 Z M 259.578125 268.359375 " fill-opacity="1" fill-rule="nonzero"/><path fill="#b3b3b3" d="M 217.371094 244.53125 L 257.75 244.53125 C 258.265625 244.53125 258.773438 244.582031 259.277344 244.679688 C 259.785156 244.78125 260.273438 244.929688 260.75 245.125 C 261.222656 245.324219 261.675781 245.566406 262.105469 245.851562 C 262.53125 246.136719 262.929688 246.460938 263.292969 246.824219 C 263.65625 247.1875 263.980469 247.585938 264.265625 248.011719 C 264.550781 248.4375 264.792969 248.890625 264.992188 249.367188 C 265.1875 249.839844 265.335938 250.332031 265.4375 250.835938 C 265.535156 251.339844 265.585938 251.847656 265.585938 252.363281 L 265.585938 268.472656 C 265.585938 268.988281 265.535156 269.5 265.4375 270.003906 C 265.335938 270.507812 265.1875 270.996094 264.992188 271.472656 C 264.792969 271.949219 264.550781 272.398438 264.265625 272.828125 C 263.980469 273.253906 263.65625 273.648438 263.292969 274.015625 C 262.929688 274.378906 262.53125 274.703125 262.105469 274.988281 C 261.675781 275.273438 261.226562 275.515625 260.75 275.710938 C 260.273438 275.910156 259.785156 276.058594 259.277344 276.15625 C 258.773438 276.257812 258.265625 276.308594 257.75 276.308594 L 217.371094 276.308594 C 216.855469 276.308594 216.347656 276.257812 215.839844 276.15625 C 215.335938 276.058594 214.847656 275.910156 214.371094 275.710938 C 213.894531 275.515625 213.445312 275.273438 213.015625 274.988281 C 212.589844 274.703125 212.191406 274.378906 211.828125 274.015625 C 211.464844 273.648438 211.140625 273.253906 210.855469 272.828125 C 210.570312 272.398438 210.328125 271.949219 210.128906 271.472656 C 209.933594 270.996094 209.785156 270.507812 209.683594 270.003906 C 209.582031 269.5 209.535156 268.988281 209.535156 268.472656 L 209.535156 252.363281 C 209.535156 251.847656 209.582031 251.339844 209.683594 250.835938 C 209.785156 250.332031 209.933594 249.839844 210.128906 249.367188 C 210.328125 248.890625 210.570312 248.4375 210.855469 248.011719 C 211.140625 247.585938 211.464844 247.1875 211.828125 246.824219 C 212.191406 246.460938 212.589844 246.136719 213.015625 245.851562 C 213.445312 245.566406 213.894531 245.324219 214.371094 245.125 C 214.847656 244.929688 215.335938 244.78125 215.839844 244.679688 C 216.347656 244.582031 216.855469 244.53125 217.371094 244.53125 Z M 217.371094 244.53125 " fill-opacity="1" fill-rule="nonzero"/><path fill="#e6e6e6" d="M 326.875 179.429688 C 305.386719 167.953125 275.8125 206.738281 271.003906 213.347656 C 271.457031 213.929688 271.902344 214.527344 272.328125 215.132812 C 284.699219 232.535156 285.683594 255.53125 285.683594 283.78125 C 285.683594 284.976562 285.683594 286.167969 285.609375 287.347656 C 312.464844 259.753906 336.007812 211.484375 332.90625 189.527344 C 332.1875 184.578125 330.167969 181.179688 326.875 179.429688 Z M 326.875 179.429688 " fill-opacity="1" fill-rule="nonzero"/><path fill="#00ffff" d="M 206.863281 246.414062 L 254.996094 246.414062 L 254.996094 266.074219 L 206.863281 266.074219 Z M 206.863281 246.414062 " fill-opacity="1" fill-rule="nonzero"/><path fill="#e6e6e6" d="M 228 321.574219 L 228 329.867188 C 228 329.957031 228 330.050781 228 330.140625 C 243.496094 328.164062 258.640625 324.675781 273.441406 319.683594 C 275.75 314.675781 277.535156 309.492188 278.796875 304.125 C 262.035156 310.132812 244.820312 314.210938 227.144531 316.363281 C 227.722656 318.050781 228.007812 319.789062 228 321.574219 Z M 228 321.574219 " fill-opacity="1" fill-rule="nonzero"/><path fill="#10c6c1" d="M 171.792969 341.050781 L 212.257812 341.050781 C 212.992188 341.050781 213.71875 340.976562 214.4375 340.835938 C 215.160156 340.691406 215.859375 340.480469 216.535156 340.199219 C 217.214844 339.917969 217.859375 339.570312 218.46875 339.164062 C 219.078125 338.753906 219.644531 338.292969 220.160156 337.773438 C 220.679688 337.253906 221.144531 336.6875 221.550781 336.078125 C 221.957031 335.464844 222.300781 334.820312 222.582031 334.144531 C 222.859375 333.464844 223.070312 332.765625 223.214844 332.046875 C 223.355469 331.324219 223.425781 330.597656 223.425781 329.867188 L 223.425781 321.574219 C 223.425781 320.839844 223.351562 320.113281 223.207031 319.394531 C 223.066406 318.675781 222.851562 317.980469 222.574219 317.304688 C 222.292969 316.625 221.949219 315.984375 221.539062 315.375 C 221.132812 314.765625 220.671875 314.199219 220.152344 313.683594 C 219.632812 313.164062 219.070312 312.703125 218.460938 312.296875 C 217.851562 311.886719 217.207031 311.542969 216.53125 311.261719 C 215.851562 310.984375 215.15625 310.769531 214.4375 310.628906 C 213.71875 310.484375 212.992188 310.410156 212.257812 310.410156 L 171.792969 310.410156 C 171.0625 310.410156 170.335938 310.480469 169.617188 310.625 C 168.894531 310.765625 168.199219 310.980469 167.519531 311.257812 C 166.84375 311.539062 166.199219 311.882812 165.589844 312.289062 C 164.980469 312.699219 164.414062 313.160156 163.894531 313.679688 C 163.378906 314.195312 162.914062 314.761719 162.507812 315.371094 C 162.101562 315.980469 161.757812 316.625 161.476562 317.300781 C 161.195312 317.976562 160.984375 318.675781 160.839844 319.394531 C 160.699219 320.113281 160.628906 320.839844 160.628906 321.574219 L 160.628906 329.867188 C 160.628906 330.664062 160.714844 331.449219 160.886719 332.230469 C 161.023438 332.847656 161.210938 333.449219 161.445312 334.035156 C 161.683594 334.621094 161.96875 335.183594 162.300781 335.722656 C 162.632812 336.261719 163.007812 336.769531 163.425781 337.242188 C 163.84375 337.71875 164.300781 338.15625 164.792969 338.554688 C 165.285156 338.949219 165.804688 339.304688 166.359375 339.613281 C 166.910156 339.925781 167.484375 340.183594 168.082031 340.398438 C 168.675781 340.609375 169.285156 340.769531 169.910156 340.878906 C 170.535156 340.988281 171.160156 341.046875 171.792969 341.050781 Z M 171.792969 341.050781 " fill-opacity="1" fill-rule="nonzero"/><path fill="#00ffff" d="M 221.742188 315.683594 C 221.242188 314.875 220.652344 314.140625 219.964844 313.484375 C 219.277344 312.828125 218.519531 312.269531 217.6875 311.808594 C 216.859375 311.347656 215.984375 310.996094 215.0625 310.761719 C 214.144531 310.523438 213.207031 310.40625 212.257812 310.410156 L 171.792969 310.410156 C 171.0625 310.410156 170.335938 310.480469 169.617188 310.625 C 168.894531 310.765625 168.199219 310.980469 167.519531 311.257812 C 166.84375 311.539062 166.199219 311.882812 165.589844 312.289062 C 164.980469 312.699219 164.414062 313.160156 163.894531 313.679688 C 163.378906 314.195312 162.914062 314.761719 162.507812 315.371094 C 162.101562 315.980469 161.757812 316.625 161.476562 317.300781 C 161.195312 317.976562 160.984375 318.675781 160.839844 319.394531 C 160.699219 320.113281 160.628906 320.839844 160.628906 321.574219 L 160.628906 328.175781 C 160.796875 328.75 161.011719 329.308594 161.269531 329.847656 C 161.53125 330.386719 161.832031 330.902344 162.171875 331.394531 C 162.515625 331.886719 162.894531 332.351562 163.308594 332.78125 C 163.726562 333.214844 164.171875 333.609375 164.652344 333.96875 C 165.132812 334.328125 165.636719 334.648438 166.167969 334.925781 C 166.699219 335.207031 167.25 335.441406 167.816406 335.632812 C 168.386719 335.820312 168.964844 335.964844 169.554688 336.0625 C 170.148438 336.164062 170.742188 336.210938 171.34375 336.214844 L 211.804688 336.214844 C 212.4375 336.210938 213.0625 336.15625 213.679688 336.050781 C 214.300781 335.941406 214.910156 335.785156 215.503906 335.574219 C 216.097656 335.363281 216.667969 335.105469 217.21875 334.800781 C 217.769531 334.496094 218.289062 334.144531 218.78125 333.75 C 219.269531 333.359375 219.726562 332.925781 220.144531 332.457031 C 220.5625 331.988281 220.941406 331.484375 221.273438 330.953125 C 221.609375 330.417969 221.894531 329.859375 222.136719 329.277344 C 222.375 328.699219 222.566406 328.101562 222.703125 327.484375 C 222.886719 326.683594 222.976562 325.875 222.972656 325.054688 L 222.972656 318.390625 C 222.6875 317.429688 222.277344 316.527344 221.742188 315.683594 Z M 221.742188 315.683594 " fill-opacity="1" fill-rule="nonzero"/><path fill="#b3b3b3" d="M 257.023438 349.210938 C 253.871094 352.023438 250.539062 354.601562 247.027344 356.945312 C 251.269531 361.613281 256.035156 366.484375 261.691406 368.597656 C 267.050781 370.609375 274.449219 369.492188 277.496094 363.449219 C 279.890625 358.683594 278.734375 352.683594 276.851562 348.660156 C 274.777344 344.222656 271.496094 340.566406 268.203125 337.085938 C 264.867188 341.488281 261.140625 345.527344 257.023438 349.210938 Z M 257.023438 349.210938 " fill-opacity="1" fill-rule="nonzero"/><path fill="#00ffff" d="M 298.054688 152.050781 C 191.050781 188.769531 75.898438 152.132812 75.644531 152.050781 C 87.429688 158.546875 104.03125 163.929688 124.992188 167.976562 C 145.421875 171.941406 166.039062 173.921875 186.84375 173.921875 C 207.652344 173.921875 228.269531 171.941406 248.695312 167.976562 C 269.667969 163.9375 286.257812 158.550781 298.054688 152.050781 Z M 298.054688 152.050781 " fill-opacity="1" fill-rule="nonzero"/><path fill="#b3b3b3" d="M 157.046875 24.632812 L 172.84375 49.894531 L 199.675781 49.894531 L 216.644531 24.632812 Z M 157.046875 24.632812 " fill-opacity="1" fill-rule="nonzero"/><path fill="#ffffff" d="M 216.644531 24.632812 C 216.644531 24.632812 277.441406 20.371094 308.585938 6.152344 L 221.585938 14.246094 Z M 216.644531 24.632812 " fill-opacity="1" fill-rule="nonzero"/><path fill="#ffffff" d="M 157.613281 24.808594 C 157.613281 24.808594 96.820312 20.546875 65.6875 6.328125 L 152.675781 14.421875 Z M 157.613281 24.808594 " fill-opacity="1" fill-rule="nonzero"/><path fill="#ffffff" d="M 258.96875 209.945312 C 258.96875 210.695312 258.851562 211.441406 258.625 212.1875 C 258.398438 212.933594 258.058594 213.675781 257.605469 214.410156 C 257.152344 215.148438 256.589844 215.875 255.914062 216.589844 C 255.242188 217.308594 254.460938 218.015625 253.574219 218.707031 C 252.683594 219.398438 251.695312 220.078125 250.601562 220.738281 C 249.507812 221.398438 248.316406 222.042969 247.027344 222.664062 C 245.738281 223.289062 244.355469 223.890625 242.882812 224.46875 C 241.410156 225.050781 239.855469 225.605469 238.214844 226.136719 C 236.574219 226.664062 234.855469 227.167969 233.0625 227.644531 C 231.269531 228.121094 229.40625 228.566406 227.476562 228.980469 C 225.546875 229.398438 223.558594 229.785156 221.511719 230.136719 C 219.464844 230.492188 217.371094 230.8125 215.226562 231.097656 C 213.082031 231.386719 210.902344 231.636719 208.679688 231.855469 C 206.460938 232.074219 204.210938 232.253906 201.933594 232.402344 C 199.660156 232.546875 197.367188 232.65625 195.054688 232.730469 C 192.746094 232.804688 190.433594 232.839844 188.113281 232.839844 C 185.789062 232.839844 183.476562 232.804688 181.167969 232.730469 C 178.855469 232.65625 176.5625 232.546875 174.289062 232.402344 C 172.011719 232.253906 169.765625 232.074219 167.542969 231.855469 C 165.324219 231.636719 163.140625 231.386719 160.996094 231.097656 C 158.851562 230.8125 156.757812 230.492188 154.710938 230.136719 C 152.664062 229.785156 150.675781 229.398438 148.746094 228.980469 C 146.816406 228.566406 144.957031 228.121094 143.160156 227.644531 C 141.367188 227.167969 139.648438 226.664062 138.007812 226.136719 C 136.367188 225.605469 134.8125 225.050781 133.339844 224.46875 C 131.867188 223.890625 130.488281 223.289062 129.199219 222.664062 C 127.910156 222.042969 126.714844 221.398438 125.621094 220.738281 C 124.527344 220.078125 123.539062 219.398438 122.648438 218.707031 C 121.761719 218.015625 120.980469 217.308594 120.308594 216.589844 C 119.632812 215.875 119.070312 215.148438 118.617188 214.410156 C 118.164062 213.675781 117.824219 212.933594 117.597656 212.1875 C 117.371094 211.441406 117.257812 210.695312 117.257812 209.945312 C 117.257812 209.195312 117.371094 208.445312 117.597656 207.699219 C 117.824219 206.953125 118.164062 206.214844 118.617188 205.476562 C 119.070312 204.742188 119.632812 204.015625 120.308594 203.296875 C 120.980469 202.582031 121.761719 201.875 122.648438 201.183594 C 123.539062 200.488281 124.527344 199.8125 125.621094 199.152344 C 126.714844 198.492188 127.910156 197.847656 129.199219 197.222656 C 130.488281 196.601562 131.867188 196 133.339844 195.417969 C 134.8125 194.839844 136.367188 194.285156 138.007812 193.753906 C 139.648438 193.222656 141.367188 192.722656 143.160156 192.246094 C 144.957031 191.769531 146.816406 191.324219 148.746094 190.90625 C 150.675781 190.492188 152.664062 190.105469 154.710938 189.753906 C 156.757812 189.398438 158.851562 189.078125 160.996094 188.792969 C 163.140625 188.503906 165.324219 188.253906 167.542969 188.035156 C 169.765625 187.816406 172.011719 187.636719 174.289062 187.488281 C 176.5625 187.34375 178.855469 187.230469 181.167969 187.160156 C 183.476562 187.085938 185.789062 187.046875 188.113281 187.046875 C 190.433594 187.046875 192.746094 187.085938 195.054688 187.160156 C 197.367188 187.230469 199.660156 187.34375 201.933594 187.488281 C 204.210938 187.636719 206.460938 187.816406 208.679688 188.035156 C 210.902344 188.253906 213.082031 188.503906 215.226562 188.792969 C 217.371094 189.078125 219.464844 189.398438 221.511719 189.753906 C 223.558594 190.105469 225.546875 190.492188 227.476562 190.90625 C 229.40625 191.324219 231.269531 191.769531 233.0625 192.246094 C 234.855469 192.722656 236.574219 193.222656 238.214844 193.753906 C 239.855469 194.285156 241.410156 194.839844 242.882812 195.417969 C 244.355469 196 245.738281 196.601562 247.027344 197.222656 C 248.316406 197.847656 249.507812 198.492188 250.601562 199.152344 C 251.695312 199.8125 252.683594 200.488281 253.574219 201.183594 C 254.460938 201.875 255.242188 202.582031 255.914062 203.296875 C 256.589844 204.015625 257.152344 204.742188 257.605469 205.476562 C 258.058594 206.214844 258.398438 206.953125 258.625 207.699219 C 258.851562 208.445312 258.96875 209.195312 258.96875 209.945312 Z M 258.96875 209.945312 " fill-opacity="1" fill-rule="nonzero"/><path fill="#b3b3b3" d="M 255.277344 209.097656 C 255.277344 209.78125 255.171875 210.46875 254.953125 211.152344 C 254.738281 211.835938 254.417969 212.515625 253.988281 213.1875 C 253.558594 213.863281 253.023438 214.527344 252.386719 215.183594 C 251.746094 215.84375 251.007812 216.488281 250.164062 217.121094 C 249.324219 217.757812 248.382812 218.378906 247.347656 218.984375 C 246.308594 219.589844 245.179688 220.179688 243.957031 220.75 C 242.734375 221.320312 241.425781 221.871094 240.03125 222.402344 C 238.636719 222.933594 237.160156 223.441406 235.605469 223.929688 C 234.050781 224.414062 232.421875 224.875 230.722656 225.308594 C 229.019531 225.746094 227.257812 226.15625 225.425781 226.535156 C 223.597656 226.917969 221.714844 227.269531 219.773438 227.59375 C 217.832031 227.917969 215.847656 228.210938 213.816406 228.476562 C 211.78125 228.738281 209.714844 228.96875 207.609375 229.167969 C 205.503906 229.367188 203.371094 229.535156 201.214844 229.667969 C 199.058594 229.804688 196.882812 229.902344 194.695312 229.972656 C 192.503906 230.039062 190.3125 230.070312 188.113281 230.070312 C 185.910156 230.070312 183.71875 230.039062 181.527344 229.972656 C 179.339844 229.902344 177.164062 229.804688 175.007812 229.667969 C 172.851562 229.535156 170.71875 229.367188 168.613281 229.167969 C 166.507812 228.96875 164.441406 228.738281 162.40625 228.476562 C 160.375 228.210938 158.390625 227.917969 156.449219 227.59375 C 154.507812 227.269531 152.625 226.917969 150.796875 226.535156 C 148.96875 226.15625 147.203125 225.746094 145.5 225.308594 C 143.800781 224.875 142.171875 224.414062 140.617188 223.929688 C 139.0625 223.441406 137.585938 222.933594 136.191406 222.402344 C 134.796875 221.871094 133.488281 221.320312 132.265625 220.75 C 131.042969 220.179688 129.914062 219.589844 128.875 218.984375 C 127.839844 218.378906 126.898438 217.757812 126.058594 217.121094 C 125.214844 216.488281 124.476562 215.84375 123.835938 215.183594 C 123.199219 214.527344 122.664062 213.863281 122.234375 213.1875 C 121.804688 212.515625 121.484375 211.835938 121.269531 211.152344 C 121.054688 210.46875 120.945312 209.78125 120.945312 209.097656 C 120.945312 208.410156 121.054688 207.722656 121.269531 207.039062 C 121.484375 206.355469 121.804688 205.675781 122.234375 205.003906 C 122.664062 204.328125 123.199219 203.664062 123.835938 203.007812 C 124.476562 202.347656 125.214844 201.703125 126.058594 201.070312 C 126.898438 200.433594 127.839844 199.8125 128.875 199.207031 C 129.914062 198.601562 131.042969 198.011719 132.265625 197.441406 C 133.488281 196.871094 134.796875 196.320312 136.191406 195.789062 C 137.585938 195.257812 139.0625 194.75 140.617188 194.261719 C 142.171875 193.777344 143.800781 193.316406 145.5 192.882812 C 147.203125 192.445312 148.96875 192.035156 150.796875 191.65625 C 152.625 191.273438 154.507812 190.921875 156.449219 190.597656 C 158.390625 190.273438 160.375 189.980469 162.40625 189.714844 C 164.441406 189.453125 166.507812 189.222656 168.613281 189.023438 C 170.71875 188.824219 172.851562 188.65625 175.007812 188.523438 C 177.164062 188.386719 179.339844 188.289062 181.527344 188.21875 C 183.71875 188.152344 185.910156 188.121094 188.113281 188.121094 C 190.3125 188.121094 192.503906 188.152344 194.695312 188.21875 C 196.882812 188.289062 199.058594 188.386719 201.214844 188.523438 C 203.371094 188.65625 205.503906 188.824219 207.609375 189.023438 C 209.714844 189.222656 211.78125 189.453125 213.816406 189.714844 C 215.847656 189.980469 217.832031 190.273438 219.773438 190.597656 C 221.714844 190.921875 223.597656 191.273438 225.425781 191.65625 C 227.257812 192.035156 229.019531 192.445312 230.722656 192.882812 C 232.421875 193.316406 234.050781 193.777344 235.605469 194.261719 C 237.160156 194.75 238.636719 195.257812 240.03125 195.789062 C 241.425781 196.320312 242.734375 196.871094 243.957031 197.441406 C 245.179688 198.011719 246.308594 198.601562 247.347656 199.207031 C 248.382812 199.8125 249.324219 200.433594 250.164062 201.070312 C 251.007812 201.703125 251.746094 202.347656 252.386719 203.007812 C 253.023438 203.664062 253.558594 204.328125 253.988281 205.003906 C 254.417969 205.675781 254.738281 206.355469 254.953125 207.039062 C 255.171875 207.722656 255.277344 208.410156 255.277344 209.097656 Z M 255.277344 209.097656 " fill-opacity="1" fill-rule="nonzero"/><path fill="#00ffff" d="M 218.175781 201.382812 C 218.175781 201.605469 218.128906 201.828125 218.035156 202.046875 C 217.945312 202.265625 217.808594 202.484375 217.625 202.703125 C 217.445312 202.917969 217.21875 203.132812 216.945312 203.34375 C 216.675781 203.558594 216.359375 203.765625 216.003906 203.96875 C 215.644531 204.175781 215.246094 204.375 214.808594 204.570312 C 214.367188 204.765625 213.886719 204.953125 213.367188 205.136719 C 212.847656 205.320312 212.292969 205.5 211.703125 205.667969 C 211.109375 205.839844 210.480469 206.003906 209.820312 206.160156 C 209.160156 206.316406 208.46875 206.464844 207.75 206.605469 C 207.027344 206.746094 206.277344 206.878906 205.5 207 C 204.722656 207.125 203.925781 207.238281 203.101562 207.34375 C 202.277344 207.445312 201.433594 207.539062 200.570312 207.625 C 199.707031 207.710938 198.828125 207.785156 197.933594 207.847656 C 197.042969 207.914062 196.136719 207.964844 195.222656 208.007812 C 194.304688 208.054688 193.382812 208.085938 192.453125 208.105469 C 191.523438 208.128906 190.589844 208.140625 189.65625 208.140625 C 188.722656 208.140625 187.792969 208.128906 186.863281 208.105469 C 185.933594 208.085938 185.011719 208.054688 184.09375 208.007812 C 183.179688 207.964844 182.273438 207.914062 181.378906 207.847656 C 180.484375 207.785156 179.609375 207.710938 178.746094 207.625 C 177.882812 207.539062 177.039062 207.445312 176.214844 207.34375 C 175.390625 207.238281 174.589844 207.125 173.816406 207 C 173.039062 206.878906 172.289062 206.746094 171.566406 206.605469 C 170.84375 206.464844 170.152344 206.316406 169.492188 206.160156 C 168.832031 206.003906 168.207031 205.839844 167.613281 205.667969 C 167.019531 205.5 166.464844 205.320312 165.945312 205.136719 C 165.429688 204.953125 164.949219 204.765625 164.507812 204.570312 C 164.066406 204.375 163.667969 204.175781 163.3125 203.96875 C 162.953125 203.765625 162.640625 203.558594 162.367188 203.34375 C 162.097656 203.132812 161.871094 202.917969 161.6875 202.703125 C 161.507812 202.484375 161.371094 202.265625 161.277344 202.046875 C 161.1875 201.828125 161.140625 201.605469 161.140625 201.382812 C 161.140625 201.164062 161.1875 200.941406 161.277344 200.722656 C 161.371094 200.503906 161.507812 200.285156 161.6875 200.066406 C 161.871094 199.851562 162.097656 199.636719 162.367188 199.421875 C 162.640625 199.210938 162.953125 199.003906 163.3125 198.800781 C 163.667969 198.59375 164.066406 198.394531 164.507812 198.199219 C 164.949219 198.003906 165.429688 197.816406 165.945312 197.632812 C 166.464844 197.449219 167.019531 197.269531 167.613281 197.097656 C 168.207031 196.929688 168.832031 196.765625 169.492188 196.609375 C 170.152344 196.453125 170.84375 196.304688 171.566406 196.164062 C 172.289062 196.023438 173.039062 195.890625 173.816406 195.769531 C 174.589844 195.644531 175.390625 195.53125 176.214844 195.425781 C 177.039062 195.324219 177.882812 195.230469 178.746094 195.144531 C 179.609375 195.058594 180.484375 194.984375 181.378906 194.921875 C 182.273438 194.855469 183.179688 194.800781 184.09375 194.757812 C 185.011719 194.714844 185.933594 194.683594 186.863281 194.664062 C 187.792969 194.640625 188.722656 194.628906 189.65625 194.628906 C 190.589844 194.628906 191.523438 194.640625 192.453125 194.664062 C 193.382812 194.683594 194.304688 194.714844 195.222656 194.757812 C 196.136719 194.800781 197.042969 194.855469 197.933594 194.921875 C 198.828125 194.984375 199.707031 195.058594 200.570312 195.144531 C 201.433594 195.230469 202.277344 195.324219 203.101562 195.425781 C 203.925781 195.53125 204.722656 195.644531 205.5 195.769531 C 206.277344 195.890625 207.027344 196.023438 207.75 196.164062 C 208.46875 196.304688 209.160156 196.453125 209.820312 196.609375 C 210.480469 196.765625 211.109375 196.929688 211.703125 197.097656 C 212.292969 197.269531 212.847656 197.449219 213.367188 197.632812 C 213.886719 197.816406 214.367188 198.003906 214.808594 198.199219 C 215.246094 198.394531 215.644531 198.59375 216.003906 198.800781 C 216.359375 199.003906 216.675781 199.210938 216.945312 199.421875 C 217.21875 199.636719 217.445312 199.851562 217.625 200.066406 C 217.808594 200.285156 217.945312 200.503906 218.035156 200.722656 C 218.128906 200.941406 218.175781 201.164062 218.175781 201.382812 Z M 218.175781 201.382812 " fill-opacity="1" fill-rule="nonzero"/><path fill="#b3b3b3" d="M 96.339844 298.5 C 98.261719 299.1875 114.660156 304.910156 139.199219 309.171875 C 101.207031 297.527344 95.902344 254.175781 95.902344 254.175781 C 95.136719 263.449219 95.136719 273.402344 95.136719 283.789062 C 95.132812 288.726562 95.535156 293.628906 96.339844 298.5 Z M 96.339844 298.5 " fill-opacity="1" fill-rule="nonzero"/><path fill="#b3b3b3" d="M 280.402344 298.5 C 278.476562 299.1875 262.074219 304.910156 237.546875 309.171875 C 275.535156 297.527344 280.839844 254.175781 280.839844 254.175781 C 281.605469 263.449219 281.605469 273.402344 281.605469 283.789062 C 281.605469 288.726562 281.207031 293.628906 280.402344 298.5 Z M 280.402344 298.5 " fill-opacity="1" fill-rule="nonzero"/><path fill="#10c6c1" d="M 206.863281 260.105469 L 255.285156 260.105469 L 255.003906 266.074219 L 206.863281 266.074219 Z M 206.863281 260.105469 " fill-opacity="1" fill-rule="nonzero"/><path fill="#b3b3b3" d="M 332.027344 204.222656 C 330.101562 209.734375 327.296875 214.753906 323.609375 219.277344 C 319.214844 224.519531 313.40625 228.679688 306.816406 230.507812 C 305.945312 230.75 305.066406 230.949219 304.175781 231.109375 C 303.289062 231.269531 302.390625 231.386719 301.492188 231.464844 C 300.59375 231.539062 299.691406 231.574219 298.785156 231.566406 C 297.882812 231.558594 296.980469 231.507812 296.082031 231.417969 C 295.183594 231.324219 294.292969 231.191406 293.40625 231.015625 C 292.519531 230.84375 291.644531 230.625 290.777344 230.371094 C 289.910156 230.113281 289.058594 229.816406 288.21875 229.480469 C 287.382812 229.144531 286.558594 228.769531 285.757812 228.359375 C 284.953125 227.945312 284.167969 227.496094 283.40625 227.011719 C 282.644531 226.527344 281.90625 226.007812 281.195312 225.453125 C 280.480469 224.898438 279.796875 224.3125 279.136719 223.695312 C 278.476562 223.078125 277.847656 222.429688 277.25 221.753906 C 276.652344 221.078125 276.085938 220.375 275.554688 219.644531 C 275.019531 218.917969 274.523438 218.164062 274.058594 217.386719 C 273.597656 216.613281 273.171875 215.816406 272.78125 215.003906 C 272.394531 214.1875 272.042969 213.355469 271.734375 212.507812 L 271.910156 214.582031 C 272.039062 214.765625 272.183594 214.941406 272.316406 215.132812 C 284.683594 232.535156 285.667969 255.53125 285.667969 283.78125 C 285.667969 284.976562 285.667969 286.167969 285.59375 287.347656 C 307.445312 264.894531 327.097656 228.742188 332.027344 204.222656 Z M 332.027344 204.222656 " fill-opacity="1" fill-rule="nonzero"/><path fill="#b3b3b3" d="M 43.1875 204.222656 C 45.109375 209.734375 47.917969 214.753906 51.605469 219.277344 C 53.777344 221.949219 56.292969 224.242188 59.15625 226.15625 C 62.015625 228.070312 65.097656 229.519531 68.398438 230.507812 C 69.265625 230.75 70.148438 230.949219 71.035156 231.109375 C 71.925781 231.269531 72.820312 231.386719 73.71875 231.464844 C 74.621094 231.539062 75.523438 231.574219 76.425781 231.566406 C 77.328125 231.558594 78.230469 231.507812 79.128906 231.417969 C 80.027344 231.324219 80.921875 231.191406 81.808594 231.015625 C 82.695312 230.84375 83.570312 230.625 84.4375 230.371094 C 85.300781 230.113281 86.15625 229.816406 86.992188 229.480469 C 87.832031 229.144531 88.652344 228.769531 89.457031 228.359375 C 90.261719 227.945312 91.042969 227.496094 91.804688 227.011719 C 92.566406 226.527344 93.304688 226.007812 94.019531 225.453125 C 94.730469 224.898438 95.417969 224.3125 96.078125 223.695312 C 96.734375 223.078125 97.363281 222.429688 97.960938 221.753906 C 98.5625 221.078125 99.125 220.375 99.660156 219.644531 C 100.191406 218.917969 100.691406 218.164062 101.152344 217.386719 C 101.617188 216.613281 102.042969 215.816406 102.429688 215.003906 C 102.820312 214.1875 103.167969 213.355469 103.480469 212.507812 L 103.304688 214.582031 L 102.898438 215.132812 C 90.53125 232.535156 89.542969 255.53125 89.542969 283.78125 C 89.542969 284.976562 89.542969 286.167969 89.621094 287.347656 C 67.746094 264.894531 48.085938 228.742188 43.1875 204.222656 Z M 43.1875 204.222656 " fill-opacity="1" fill-rule="nonzero"/><path fill="#b3b3b3" d="M 277.320312 312.035156 C 261.007812 317.792969 244.273438 321.765625 227.113281 323.945312 L 228 329.886719 C 228 329.980469 228 330.070312 228 330.164062 C 243.496094 328.1875 258.640625 324.699219 273.441406 319.707031 C 273.992188 318.488281 276.816406 313.289062 277.320312 312.035156 Z M 277.320312 312.035156 " fill-opacity="1" fill-rule="nonzero"/><path fill="#b3b3b3" d="M 99.554688 312.035156 C 126.664062 321.589844 156.050781 323.308594 156.050781 323.308594 L 156.050781 330.132812 C 156.050781 330.226562 148.863281 330.070312 148.871094 330.132812 C 133.375 328.15625 118.226562 324.671875 103.425781 319.675781 C 102.882812 318.488281 100.050781 313.289062 99.554688 312.035156 Z M 99.554688 312.035156 " fill-opacity="1" fill-rule="nonzero"/><path fill="#666666" d="M 206.511719 53.816406 L 175.828125 119.414062 C 172.15625 118.851562 168.625 117.808594 165.234375 116.285156 C 164.390625 115.890625 163.523438 115.542969 162.640625 115.238281 L 190.820312 54.972656 C 196.054688 54.851562 201.289062 54.46875 206.511719 53.816406 Z M 206.511719 53.816406 " fill-opacity="1" fill-rule="nonzero"/><path fill="#666666" d="M 257.980469 55.300781 L 229.554688 116.101562 C 229.273438 115.996094 228.988281 115.875 228.707031 115.757812 C 225.671875 114.488281 222.511719 113.855469 219.222656 113.863281 C 215.453125 113.859375 211.867188 114.667969 208.460938 116.285156 C 200.042969 120.257812 188.875 120.316406 187.140625 120.304688 L 219.222656 51.683594 C 221.519531 51.207031 223.746094 50.6875 225.996094 50.105469 C 237.75 47.09375 248.878906 49.808594 257.980469 55.300781 Z M 257.980469 55.300781 " fill-opacity="1" fill-rule="nonzero"/><path fill="#102628" d="M 338.316406 188.761719 C 337.359375 181.984375 334.382812 177.210938 329.453125 174.585938 C 305.308594 161.703125 275.84375 197.691406 267.835938 208.355469 C 252.660156 192.710938 227.023438 185.367188 188.140625 185.367188 C 148.4375 185.367188 122.492188 192.71875 107.476562 208.375 C 99.460938 197.742188 69.980469 161.695312 45.789062 174.570312 C 40.882812 177.210938 37.898438 181.984375 36.941406 188.761719 C 33.113281 215.613281 61.992188 268.207031 88.402344 293.835938 C 88.929688 294.335938 89.554688 294.617188 90.277344 294.675781 C 91.023438 301.386719 92.523438 307.925781 94.777344 314.292969 C 97.035156 320.660156 99.988281 326.683594 103.640625 332.367188 C 99.9375 336.261719 95.773438 340.675781 93.140625 346.304688 C 89.996094 353.03125 89.78125 360.351562 92.566406 365.882812 C 95.773438 372.269531 102.050781 375 108.15625 375 C 110.578125 375.003906 112.925781 374.585938 115.199219 373.746094 C 122.269531 371.105469 127.695312 365.40625 132.472656 360.121094 C 148.472656 369.796875 167.675781 375.007812 188.113281 375.007812 C 208.179688 375.007812 227.089844 369.980469 242.925781 360.625 C 247.59375 365.765625 252.875 371.191406 259.761719 373.746094 C 262.035156 374.585938 264.382812 375.003906 266.804688 375 C 272.925781 375 279.1875 372.277344 282.386719 365.917969 C 285.179688 360.386719 284.964844 353.066406 281.820312 346.34375 C 279.363281 341.09375 275.574219 336.902344 272.070312 333.199219 C 274.164062 330.054688 276.035156 326.785156 277.6875 323.386719 C 277.859375 323.128906 277.996094 322.851562 278.09375 322.558594 C 281.269531 315.820312 283.554688 308.789062 284.941406 301.46875 C 285.003906 301.265625 285.042969 301.058594 285.066406 300.847656 C 285.457031 298.730469 285.769531 296.597656 286.007812 294.429688 C 286.335938 294.285156 286.632812 294.085938 286.894531 293.835938 C 313.277344 268.207031 342.113281 215.613281 338.316406 188.761719 Z M 326.441406 180.238281 C 329.5 181.871094 331.316406 184.953125 331.980469 189.65625 C 332.746094 195.011719 331.867188 202.027344 329.730469 209.898438 C 323.609375 194.261719 308.996094 187.1875 301.046875 184.410156 C 309.527344 178.894531 318.578125 176.039062 326.441406 180.238281 Z M 294.59375 189.167969 C 296.835938 189.632812 323.316406 195.625 325.972656 221.425781 C 321.617188 232.660156 316.289062 243.414062 309.992188 253.6875 C 310.253906 250.167969 310.238281 246.648438 309.945312 243.128906 C 309.65625 239.609375 309.089844 236.136719 308.253906 232.707031 C 307.417969 229.277344 306.316406 225.933594 304.957031 222.675781 C 303.59375 219.417969 301.988281 216.285156 300.132812 213.28125 C 296.335938 207.09375 291.632812 201.691406 286.03125 197.070312 C 288.746094 194.285156 291.601562 191.652344 294.59375 189.167969 Z M 189.671875 195.539062 C 207.0625 195.539062 216.214844 199.609375 217.226562 201.382812 C 216.207031 203.152344 207.054688 207.222656 189.671875 207.222656 C 172.292969 207.222656 163.136719 203.152344 162.121094 201.382812 C 163.125 199.609375 172.277344 195.539062 189.671875 195.539062 Z M 164.140625 192.847656 C 159.160156 194.738281 155.667969 197.484375 155.667969 201.382812 C 155.667969 211.046875 177.042969 213.625 189.671875 213.625 C 202.300781 213.625 223.683594 211.046875 223.683594 201.382812 C 223.683594 197.851562 220.824219 195.265625 216.574219 193.40625 C 241.65625 196.648438 258.222656 204.78125 267.851562 218.304688 C 279.285156 234.371094 280.199219 256.519531 280.199219 283.78125 C 280.199219 288.621094 279.8125 293.433594 279.035156 298.210938 C 261.601562 304.636719 243.65625 308.921875 225.199219 311.0625 C 224.421875 310.101562 223.546875 309.238281 222.574219 308.472656 C 221.601562 307.707031 220.554688 307.0625 219.4375 306.53125 C 218.320312 306.003906 217.15625 305.601562 215.949219 305.335938 C 214.742188 305.066406 213.519531 304.9375 212.28125 304.941406 L 171.792969 304.941406 C 170.558594 304.9375 169.335938 305.070312 168.132812 305.339844 C 166.925781 305.609375 165.765625 306.007812 164.648438 306.539062 C 163.53125 307.066406 162.488281 307.714844 161.515625 308.476562 C 160.542969 309.242188 159.667969 310.101562 158.890625 311.0625 C 125.589844 307.351562 101.488281 299.335938 97.152344 297.820312 C 96.417969 293.171875 96.050781 288.496094 96.054688 283.789062 C 96.054688 258.628906 96.054688 234.867188 107.535156 218.285156 C 117.5625 203.902344 135.785156 195.640625 164.125 192.847656 Z M 272.742188 318.972656 C 258.457031 323.753906 243.847656 327.132812 228.910156 329.101562 L 228.910156 321.550781 C 228.910156 320.039062 228.710938 318.558594 228.308594 317.105469 C 245.105469 314.992188 261.492188 311.140625 277.472656 305.554688 C 276.289062 310.164062 274.714844 314.636719 272.742188 318.972656 Z M 103.097656 318.113281 C 101.238281 313.890625 99.75 309.542969 98.636719 305.0625 C 117.289062 310.890625 136.328125 314.914062 155.746094 317.136719 C 155.34375 318.585938 155.140625 320.066406 155.140625 321.574219 L 155.140625 329.101562 C 137.476562 326.941406 120.128906 323.277344 103.097656 318.113281 Z M 161.785156 332.054688 C 161.625 331.339844 161.546875 330.617188 161.546875 329.886719 L 161.546875 321.574219 C 161.546875 320.898438 161.609375 320.234375 161.742188 319.574219 C 161.871094 318.914062 162.066406 318.273438 162.324219 317.652344 C 162.578125 317.027344 162.894531 316.4375 163.269531 315.878906 C 163.644531 315.320312 164.066406 314.800781 164.542969 314.324219 C 165.019531 313.847656 165.539062 313.425781 166.097656 313.050781 C 166.65625 312.675781 167.25 312.363281 167.871094 312.105469 C 168.492188 311.847656 169.132812 311.65625 169.792969 311.523438 C 170.453125 311.394531 171.121094 311.328125 171.792969 311.328125 L 212.257812 311.328125 C 212.929688 311.328125 213.597656 311.394531 214.257812 311.523438 C 214.917969 311.65625 215.558594 311.847656 216.183594 312.105469 C 216.804688 312.363281 217.394531 312.675781 217.957031 313.050781 C 218.515625 313.425781 219.03125 313.847656 219.507812 314.324219 C 219.984375 314.800781 220.410156 315.320312 220.785156 315.878906 C 221.15625 316.4375 221.472656 317.027344 221.730469 317.652344 C 221.988281 318.273438 222.179688 318.914062 222.3125 319.574219 C 222.441406 320.234375 222.507812 320.898438 222.507812 321.574219 L 222.507812 329.867188 C 222.507812 330.621094 222.425781 331.363281 222.261719 332.097656 C 222.132812 332.664062 221.957031 333.210938 221.738281 333.746094 C 221.519531 334.277344 221.253906 334.789062 220.949219 335.28125 C 220.640625 335.769531 220.296875 336.230469 219.910156 336.660156 C 219.527344 337.09375 219.109375 337.488281 218.660156 337.851562 C 218.207031 338.210938 217.730469 338.53125 217.226562 338.8125 C 216.71875 339.09375 216.195312 339.328125 215.648438 339.523438 C 215.105469 339.714844 214.546875 339.859375 213.980469 339.957031 C 213.410156 340.054688 212.835938 340.105469 212.257812 340.109375 L 171.792969 340.109375 C 171.214844 340.105469 170.640625 340.054688 170.066406 339.957031 C 169.496094 339.859375 168.9375 339.710938 168.390625 339.519531 C 167.84375 339.324219 167.320312 339.085938 166.8125 338.804688 C 166.304688 338.523438 165.828125 338.199219 165.375 337.835938 C 164.925781 337.472656 164.507812 337.074219 164.121094 336.640625 C 163.738281 336.207031 163.394531 335.742188 163.085938 335.25 C 162.78125 334.757812 162.519531 334.242188 162.300781 333.707031 C 162.082031 333.171875 161.910156 332.617188 161.785156 332.054688 Z M 89.253906 197.070312 C 83.648438 201.691406 78.945312 207.09375 75.140625 213.28125 C 73.289062 216.285156 71.679688 219.417969 70.320312 222.675781 C 68.960938 225.933594 67.859375 229.277344 67.023438 232.707031 C 66.1875 236.136719 65.625 239.609375 65.335938 243.128906 C 65.042969 246.648438 65.027344 250.167969 65.289062 253.6875 C 58.992188 243.414062 53.664062 232.660156 49.308594 221.425781 C 51.949219 195.601562 78.484375 189.617188 80.6875 189.167969 C 83.683594 191.648438 86.539062 194.28125 89.253906 197.070312 Z M 43.285156 189.65625 C 43.953125 184.953125 45.789062 181.871094 48.851562 180.238281 C 56.71875 176.039062 65.773438 178.894531 74.25 184.410156 C 66.308594 187.1875 51.710938 194.253906 45.566406 209.898438 C 43.402344 202.027344 42.527344 195.035156 43.285156 189.65625 Z M 73.042969 265.605469 C 73.230469 265.0625 73.265625 264.507812 73.148438 263.945312 C 65.152344 225.972656 88.703125 205.578125 93.652344 201.765625 C 98.183594 206.808594 101.589844 211.269531 103.1875 213.441406 C 102.898438 213.839844 102.601562 214.207031 102.308594 214.648438 C 89.648438 232.878906 89.648438 257.621094 89.648438 283.804688 C 89.648438 284.570312 89.648438 285.335938 89.648438 286.046875 C 83.597656 279.652344 78.0625 272.835938 73.042969 265.605469 Z M 112.953125 367.738281 C 107.941406 369.613281 101.09375 368.605469 98.292969 363.035156 C 96.410156 359.292969 96.660156 353.933594 98.941406 349.050781 C 100.953125 344.753906 104.160156 341.164062 107.359375 337.746094 C 110.710938 342.152344 114.453125 346.203125 118.582031 349.894531 C 121.253906 352.285156 124.0625 354.511719 127 356.570312 C 122.925781 361.085938 118.320312 365.742188 112.953125 367.738281 Z M 107.101562 325.980469 C 123.214844 330.488281 139.578125 333.722656 156.195312 335.679688 C 156.492188 336.46875 156.847656 337.230469 157.261719 337.96875 C 157.671875 338.703125 158.136719 339.402344 158.65625 340.070312 C 159.171875 340.734375 159.738281 341.359375 160.351562 341.9375 C 160.960938 342.519531 161.613281 343.050781 162.304688 343.53125 C 163 344.011719 163.722656 344.441406 164.480469 344.8125 C 165.238281 345.1875 166.019531 345.5 166.824219 345.753906 C 167.625 346.007812 168.445312 346.199219 169.277344 346.332031 C 170.113281 346.460938 170.949219 346.53125 171.792969 346.535156 L 212.257812 346.535156 C 213.101562 346.53125 213.9375 346.460938 214.769531 346.332031 C 215.601562 346.199219 216.417969 346.007812 217.222656 345.753906 C 218.023438 345.5 218.804688 345.1875 219.558594 344.816406 C 220.316406 344.445312 221.039062 344.019531 221.730469 343.542969 C 222.421875 343.0625 223.074219 342.53125 223.6875 341.953125 C 224.296875 341.375 224.863281 340.753906 225.382812 340.09375 C 225.902344 339.429688 226.367188 338.730469 226.78125 337.996094 C 227.191406 337.265625 227.550781 336.503906 227.847656 335.71875 C 241.644531 333.992188 255.199219 331.105469 268.503906 327.066406 C 253.195312 352.507812 223.945312 368.597656 188.140625 368.597656 C 151.789062 368.597656 122.253906 352.050781 107.101562 325.980469 Z M 276.003906 349.050781 C 278.300781 353.933594 278.535156 359.292969 276.652344 363.035156 C 273.851562 368.605469 267.003906 369.613281 261.988281 367.738281 C 256.847656 365.820312 252.394531 361.453125 248.40625 357.121094 C 251.621094 354.90625 254.679688 352.496094 257.589844 349.894531 C 261.476562 346.414062 265.023438 342.613281 268.226562 338.496094 C 271.242188 341.691406 274.136719 345.066406 276.003906 349.050781 Z M 286.566406 284.992188 C 286.566406 284.585938 286.566406 284.226562 286.566406 283.78125 C 286.566406 255.363281 285.5625 232.222656 273.035156 214.597656 C 272.734375 214.175781 272.421875 213.761719 272.109375 213.347656 C 273.730469 211.152344 277.113281 206.738281 281.597656 201.75 C 286.558594 205.578125 310.097656 225.957031 302.101562 263.921875 C 301.984375 264.484375 302.019531 265.039062 302.199219 265.582031 C 297.449219 272.421875 292.234375 278.890625 286.566406 284.992188 Z M 286.566406 284.992188 " fill-opacity="1" fill-rule="nonzero"/><path fill="#102628" d="M 52.050781 137.171875 C 59.992188 153.519531 84.195312 165.699219 123.953125 173.378906 C 144.726562 177.402344 165.691406 179.414062 186.847656 179.421875 C 208.003906 179.414062 228.96875 177.402344 249.738281 173.378906 C 289.535156 165.726562 313.695312 153.488281 321.679688 137.171875 C 339.425781 100.613281 313.375 61.652344 308.300781 54.597656 L 314.421875 3.742188 C 314.453125 3.492188 314.457031 3.238281 314.429688 2.988281 C 314.398438 2.738281 314.34375 2.496094 314.257812 2.257812 C 314.171875 2.019531 314.058594 1.796875 313.917969 1.585938 C 313.78125 1.375 313.617188 1.183594 313.433594 1.011719 C 313.25 0.839844 313.046875 0.691406 312.828125 0.566406 C 312.609375 0.441406 312.378906 0.34375 312.136719 0.273438 C 311.890625 0.203125 311.644531 0.164062 311.394531 0.152344 C 311.140625 0.140625 310.890625 0.160156 310.644531 0.207031 C 310.054688 0.3125 251.710938 11.039062 221.585938 11.039062 C 221.117188 11.039062 220.664062 11.136719 220.238281 11.335938 C 219.808594 11.535156 219.441406 11.816406 219.136719 12.179688 L 213.238281 19.179688 L 186.847656 19.8125 L 160.460938 19.179688 L 154.550781 12.179688 C 154.246094 11.816406 153.882812 11.535156 153.453125 11.335938 C 153.023438 11.136719 152.574219 11.039062 152.101562 11.039062 C 121.984375 11.039062 63.636719 0.3125 63.054688 0.207031 C 62.808594 0.160156 62.558594 0.144531 62.308594 0.15625 C 62.054688 0.167969 61.808594 0.210938 61.566406 0.28125 C 61.324219 0.351562 61.097656 0.449219 60.878906 0.574219 C 60.660156 0.699219 60.457031 0.847656 60.273438 1.019531 C 60.089844 1.191406 59.929688 1.382812 59.792969 1.589844 C 59.652344 1.800781 59.542969 2.023438 59.457031 2.261719 C 59.371094 2.5 59.3125 2.742188 59.285156 2.992188 C 59.257812 3.242188 59.257812 3.492188 59.289062 3.742188 L 65.410156 54.597656 C 60.328125 61.652344 34.261719 100.613281 52.050781 137.171875 Z M 71.289062 57.429688 C 71.824219 56.738281 72.039062 55.960938 71.925781 55.09375 L 66.167969 7.273438 C 80.097656 9.738281 124.167969 17.160156 150.640625 17.433594 L 156.519531 24.410156 C 157.136719 25.148438 157.929688 25.527344 158.890625 25.550781 L 186.804688 26.214844 L 186.957031 26.214844 L 214.859375 25.550781 C 215.824219 25.527344 216.613281 25.148438 217.234375 24.410156 L 223.109375 17.433594 C 249.523438 17.160156 293.589844 9.738281 307.535156 7.273438 L 301.773438 55.09375 C 301.671875 55.957031 301.882812 56.734375 302.40625 57.429688 C 302.722656 57.832031 333.375 98.433594 315.894531 134.371094 C 309.003906 148.601562 285.675781 159.914062 248.542969 167.089844 C 228.175781 171.039062 207.617188 173.015625 186.867188 173.015625 C 166.121094 173.015625 145.5625 171.039062 125.191406 167.089844 C 88.042969 159.914062 64.730469 148.601562 57.84375 134.371094 C 40.324219 98.433594 70.976562 57.832031 71.289062 57.429688 Z M 71.289062 57.429688 " fill-opacity="1" fill-rule="nonzero"/><path fill="#102628" d="M 147.105469 120.816406 C 148.363281 120.296875 149.660156 119.914062 150.996094 119.667969 C 152.332031 119.421875 153.679688 119.320312 155.039062 119.355469 C 156.398438 119.390625 157.742188 119.570312 159.0625 119.886719 C 160.382812 120.207031 161.660156 120.660156 162.886719 121.242188 C 172.835938 125.964844 185.554688 125.832031 186.847656 125.832031 C 188.140625 125.832031 200.832031 126.003906 210.804688 121.242188 C 212.03125 120.660156 213.304688 120.207031 214.628906 119.886719 C 215.949219 119.570312 217.289062 119.390625 218.648438 119.355469 C 220.007812 119.320312 221.355469 119.421875 222.695312 119.667969 C 224.03125 119.914062 225.328125 120.296875 226.585938 120.816406 C 232.761719 123.402344 241.570312 126.171875 250.886719 126.171875 C 260.535156 126.171875 270.722656 123.1875 279.066406 113.890625 C 289.28125 102.515625 289.609375 85.585938 279.9375 69.613281 C 269.742188 52.785156 248.679688 38.617188 224.632812 44.78125 C 218.460938 46.363281 212.210938 47.550781 205.886719 48.34375 C 199.566406 49.140625 193.21875 49.539062 186.84375 49.539062 C 180.472656 49.539062 174.125 49.140625 167.800781 48.34375 C 161.476562 47.550781 155.230469 46.363281 149.054688 44.78125 C 125.007812 38.617188 103.953125 52.816406 93.753906 69.621094 C 84.078125 85.558594 84.414062 102.515625 94.625 113.898438 C 111.019531 132.160156 134.566406 126.070312 147.105469 120.816406 Z M 99.230469 72.941406 C 107.910156 58.636719 126.707031 45.671875 147.449219 50.988281 C 153.882812 52.632812 160.394531 53.871094 166.984375 54.699219 C 173.574219 55.53125 180.1875 55.945312 186.828125 55.945312 C 193.472656 55.945312 200.085938 55.53125 206.675781 54.699219 C 213.265625 53.871094 219.777344 52.632812 226.210938 50.988281 C 246.964844 45.632812 265.761719 58.636719 274.425781 72.933594 C 280.816406 83.460938 284.125 98.628906 274.257812 109.617188 C 261.203125 124.152344 242.449219 120.515625 229.027344 114.902344 C 225.878906 113.589844 222.597656 112.933594 219.183594 112.9375 C 215.28125 112.945312 211.566406 113.785156 208.042969 115.460938 C 199.15625 119.660156 187.03125 119.398438 186.910156 119.390625 L 186.734375 119.390625 C 186.621094 119.390625 174.488281 119.660156 165.601562 115.460938 C 163.96875 114.683594 162.273438 114.082031 160.515625 113.660156 C 158.757812 113.238281 156.972656 113 155.164062 112.953125 C 153.355469 112.90625 151.5625 113.046875 149.785156 113.378906 C 148.003906 113.707031 146.28125 114.21875 144.609375 114.910156 C 131.179688 120.523438 112.464844 124.171875 99.371094 109.625 C 89.527344 98.636719 92.839844 83.46875 99.230469 72.941406 Z M 99.230469 72.941406 " fill-opacity="1" fill-rule="nonzero"/><path fill="#102628" d="M 204.582031 271.558594 L 257.289062 271.558594 C 257.714844 271.558594 258.125 271.476562 258.515625 271.3125 C 258.90625 271.152344 259.253906 270.921875 259.554688 270.621094 C 259.851562 270.320312 260.085938 269.976562 260.246094 269.582031 C 260.410156 269.191406 260.488281 268.785156 260.488281 268.359375 L 260.488281 244.125 C 260.488281 243.699219 260.410156 243.292969 260.246094 242.898438 C 260.085938 242.507812 259.851562 242.160156 259.554688 241.859375 C 259.253906 241.5625 258.90625 241.328125 258.515625 241.164062 C 258.125 241.003906 257.714844 240.921875 257.289062 240.917969 L 204.582031 240.917969 C 204.15625 240.917969 203.746094 241 203.355469 241.164062 C 202.960938 241.324219 202.613281 241.558594 202.3125 241.859375 C 202.011719 242.160156 201.78125 242.503906 201.617188 242.898438 C 201.457031 243.289062 201.375 243.699219 201.375 244.125 L 201.375 268.359375 C 201.375 268.785156 201.457031 269.191406 201.621094 269.585938 C 201.78125 269.976562 202.015625 270.324219 202.316406 270.625 C 202.617188 270.921875 202.960938 271.15625 203.355469 271.316406 C 203.746094 271.476562 204.15625 271.558594 204.582031 271.558594 Z M 207.78125 247.324219 L 254.085938 247.324219 L 254.085938 265.15625 L 207.78125 265.15625 Z M 207.78125 247.324219 " fill-opacity="1" fill-rule="nonzero"/><path fill="#00ffff" d="M 249.761719 98.484375 C 249.378906 98.484375 249.007812 98.417969 248.648438 98.285156 C 248.289062 98.152344 247.964844 97.960938 247.675781 97.710938 C 247.386719 97.464844 247.148438 97.171875 246.964844 96.835938 C 246.777344 96.503906 246.65625 96.148438 246.597656 95.769531 C 245.328125 87.46875 239.527344 80.515625 233.089844 79.589844 C 226.808594 78.6875 220.078125 83.714844 217.378906 91.277344 C 217.238281 91.679688 217.023438 92.039062 216.742188 92.355469 C 216.457031 92.667969 216.125 92.917969 215.742188 93.101562 C 215.359375 93.285156 214.957031 93.390625 214.53125 93.414062 C 214.105469 93.4375 213.695312 93.375 213.292969 93.234375 C 212.894531 93.09375 212.535156 92.882812 212.21875 92.597656 C 211.902344 92.316406 211.652344 91.980469 211.46875 91.597656 C 211.289062 91.214844 211.183594 90.8125 211.160156 90.386719 C 211.140625 89.964844 211.199219 89.550781 211.339844 89.152344 C 215.058594 78.59375 224.582031 71.910156 234 73.253906 C 243.261719 74.578125 251.230469 83.644531 252.929688 94.804688 C 252.992188 95.226562 252.976562 95.640625 252.875 96.050781 C 252.773438 96.464844 252.597656 96.839844 252.34375 97.183594 C 252.09375 97.523438 251.785156 97.804688 251.421875 98.023438 C 251.0625 98.242188 250.667969 98.382812 250.25 98.445312 C 250.085938 98.476562 249.925781 98.488281 249.761719 98.484375 Z M 249.761719 98.484375 " fill-opacity="1" fill-rule="nonzero"/><path fill="#00ffff" d="M 128.140625 98.484375 C 127.976562 98.5 127.8125 98.5 127.648438 98.484375 C 127.230469 98.421875 126.839844 98.28125 126.476562 98.058594 C 126.113281 97.839844 125.804688 97.558594 125.554688 97.21875 C 125.300781 96.878906 125.125 96.5 125.023438 96.089844 C 124.921875 95.679688 124.902344 95.261719 124.964844 94.84375 C 126.667969 83.683594 134.628906 74.617188 143.898438 73.292969 C 153.296875 71.941406 162.832031 78.648438 166.558594 89.191406 C 166.71875 89.59375 166.792969 90.015625 166.777344 90.449219 C 166.765625 90.882812 166.671875 91.300781 166.488281 91.695312 C 166.308594 92.089844 166.058594 92.433594 165.734375 92.726562 C 165.414062 93.019531 165.046875 93.238281 164.636719 93.382812 C 164.226562 93.527344 163.804688 93.585938 163.371094 93.558594 C 162.9375 93.53125 162.527344 93.421875 162.136719 93.226562 C 161.75 93.03125 161.414062 92.769531 161.132812 92.4375 C 160.847656 92.105469 160.644531 91.730469 160.511719 91.316406 C 157.851562 83.75 151.085938 78.71875 144.800781 79.628906 C 138.371094 80.554688 132.554688 87.507812 131.300781 95.808594 C 131.238281 96.183594 131.113281 96.535156 130.925781 96.863281 C 130.738281 97.191406 130.5 97.480469 130.210938 97.726562 C 129.921875 97.96875 129.597656 98.160156 129.242188 98.289062 C 128.886719 98.417969 128.519531 98.484375 128.140625 98.484375 Z M 128.140625 98.484375 " fill-opacity="1" fill-rule="nonzero"/><path fill="#00ffff" d="M 190.300781 112.1875 C 185.90625 112.1875 181.613281 109.28125 178.742188 104.359375 C 178.527344 103.992188 178.394531 103.59375 178.335938 103.171875 C 178.277344 102.746094 178.304688 102.328125 178.414062 101.917969 C 178.523438 101.503906 178.710938 101.128906 178.96875 100.789062 C 179.226562 100.449219 179.542969 100.171875 179.914062 99.957031 C 180.28125 99.742188 180.679688 99.609375 181.101562 99.550781 C 181.527344 99.496094 181.945312 99.523438 182.359375 99.632812 C 182.769531 99.742188 183.148438 99.929688 183.484375 100.1875 C 183.824219 100.449219 184.101562 100.761719 184.316406 101.132812 C 186.015625 104.054688 188.257812 105.785156 190.332031 105.785156 L 190.4375 105.785156 C 192.566406 105.714844 194.929688 103.726562 196.605469 100.605469 C 196.808594 100.230469 197.078125 99.910156 197.40625 99.640625 C 197.738281 99.375 198.105469 99.179688 198.515625 99.058594 C 198.921875 98.9375 199.339844 98.898438 199.761719 98.945312 C 200.183594 98.988281 200.582031 99.113281 200.957031 99.316406 C 201.332031 99.519531 201.652344 99.785156 201.921875 100.117188 C 202.1875 100.445312 202.382812 100.816406 202.503906 101.222656 C 202.625 101.628906 202.664062 102.046875 202.617188 102.46875 C 202.574219 102.890625 202.449219 103.289062 202.246094 103.664062 C 199.414062 108.933594 195.199219 112.078125 190.667969 112.21875 Z M 190.300781 112.1875 " fill-opacity="1" fill-rule="nonzero"/></svg>