<svg xmlns="http://www.w3.org/2000/svg" xmlns:xlink="http://www.w3.org/1999/xlink" width="500" zoomAndPan="magnify" viewBox="0 0 375 374.999991" height="500" preserveAspectRatio="xMidYMid meet" version="1.0"><defs><g/><clipPath id="07ad3f0537"><path d="M 20 228 L 208 228 L 208 354.542969 L 20 354.542969 Z M 20 228 " clip-rule="nonzero"/></clipPath><clipPath id="f6682bbd7b"><path d="M 26 122.042969 L 202 122.042969 L 202 234 L 26 234 Z M 26 122.042969 " clip-rule="nonzero"/></clipPath><clipPath id="81eb78fde0"><path d="M 213 20.527344 L 360 20.527344 L 360 140.527344 L 213 140.527344 Z M 213 20.527344 " clip-rule="nonzero"/></clipPath></defs><path fill="#b3b3b3" d="M 165.628906 323.851562 C 156.875 326.613281 147.945312 328.550781 138.832031 329.671875 C 138.503906 330.636719 138.035156 331.527344 137.429688 332.347656 C 136.820312 333.164062 136.105469 333.871094 135.277344 334.46875 C 134.449219 335.0625 133.550781 335.519531 132.582031 335.832031 C 131.613281 336.148438 130.617188 336.304688 129.601562 336.3125 L 104.554688 336.3125 C 103.535156 336.304688 102.535156 336.144531 101.566406 335.828125 C 100.59375 335.511719 99.691406 335.054688 98.863281 334.453125 C 98.035156 333.855469 97.320312 333.144531 96.714844 332.320312 C 96.109375 331.496094 95.644531 330.597656 95.316406 329.628906 C 84.480469 328.378906 73.820312 326.25 63.332031 323.238281 C 72.585938 340.277344 91.390625 351.160156 114.65625 351.160156 C 137.628906 351.140625 156.265625 340.527344 165.628906 323.851562 Z M 165.628906 323.851562 " fill-opacity="1" fill-rule="nonzero"/><path fill="#e5e5e5" d="M 94.8125 326.558594 L 94.8125 321.417969 C 94.8125 320.308594 94.996094 319.230469 95.367188 318.183594 C 82.8125 316.769531 70.515625 314.148438 58.476562 310.320312 C 59.21875 313.558594 60.265625 316.699219 61.617188 319.734375 C 72.476562 323.054688 83.546875 325.382812 94.820312 326.726562 C 94.820312 326.679688 94.8125 326.625 94.8125 326.558594 Z M 94.8125 326.558594 " fill-opacity="1" fill-rule="nonzero"/><path fill="#b3b3b3" d="M 64.75 330.566406 C 62.566406 332.867188 60.332031 335.257812 58.953125 338.210938 C 57.785156 340.707031 57.058594 344.425781 58.554688 347.378906 C 60.449219 351.128906 65 351.824219 68.335938 350.574219 C 71.972656 349.214844 75.019531 346 77.714844 343.011719 C 75.722656 341.648438 73.828125 340.164062 72.03125 338.554688 C 69.328125 336.140625 66.902344 333.480469 64.75 330.566406 Z M 64.75 330.566406 " fill-opacity="1" fill-rule="nonzero"/><path fill="#e6e6e6" d="M 75.589844 226.195312 C 88.230469 228.648438 100.992188 229.878906 113.871094 229.878906 C 126.75 229.878906 139.511719 228.648438 152.152344 226.195312 C 175.308594 221.710938 189.882812 214.59375 194.257812 205.613281 C 205.238281 183.003906 186.046875 157.566406 185.851562 157.3125 C 185.617188 157.003906 185.523438 156.660156 185.570312 156.277344 L 189.230469 125.867188 C 181.574219 127.210938 152.617188 132.160156 136.035156 132.289062 L 132.242188 136.8125 C 131.964844 137.140625 131.609375 137.308594 131.175781 137.316406 L 113.90625 137.726562 C 113.882812 137.734375 113.859375 137.734375 113.835938 137.726562 L 96.5625 137.316406 C 96.136719 137.304688 95.789062 137.136719 95.511719 136.8125 L 91.722656 132.289062 C 75.144531 132.160156 46.179688 127.210938 38.539062 125.855469 L 42.195312 156.285156 C 42.242188 156.671875 42.148438 157.015625 41.914062 157.320312 C 41.722656 157.558594 22.515625 182.996094 33.496094 205.613281 C 37.859375 214.59375 52.414062 221.710938 75.589844 226.195312 Z M 56.734375 165.484375 C 62.941406 155.242188 75.738281 146.59375 90.339844 150.34375 C 98.058594 152.320312 105.902344 153.3125 113.871094 153.3125 C 121.839844 153.3125 129.683594 152.320312 137.402344 150.34375 C 152.007812 146.585938 164.800781 155.242188 171.007812 165.484375 C 176.863281 175.140625 176.691406 185.402344 170.535156 192.261719 C 165.503906 197.878906 159.34375 199.683594 153.480469 199.683594 C 147.796875 199.683594 142.433594 197.980469 138.675781 196.40625 C 137.027344 195.726562 135.3125 195.410156 133.53125 195.457031 C 131.75 195.503906 130.054688 195.914062 128.445312 196.683594 C 122.347656 199.570312 114.550781 199.46875 113.859375 199.449219 C 113.167969 199.429688 105.367188 199.570312 99.269531 196.683594 C 97.660156 195.914062 95.964844 195.503906 94.183594 195.457031 C 92.402344 195.40625 90.6875 195.726562 89.042969 196.40625 C 81.40625 199.609375 67.113281 203.324219 57.199219 192.261719 C 51.0625 185.421875 50.878906 175.160156 56.734375 165.503906 Z M 56.734375 165.484375 " fill-opacity="1" fill-rule="nonzero"/><path fill="#b3b3b3" d="M 87.960938 200.304688 C 88.960938 199.894531 89.988281 199.585938 91.050781 199.390625 C 92.113281 199.191406 93.183594 199.109375 94.261719 199.136719 C 95.34375 199.164062 96.40625 199.304688 97.457031 199.558594 C 98.507812 199.808594 99.519531 200.167969 100.496094 200.632812 C 106.125 203.300781 113.757812 203.128906 113.835938 203.128906 L 113.910156 203.128906 C 113.980469 203.128906 121.625 203.300781 127.25 200.632812 C 129.359375 199.632812 131.578125 199.132812 133.910156 199.128906 C 135.949219 199.128906 137.90625 199.519531 139.785156 200.304688 C 148.265625 203.859375 160.117188 206.148438 168.425781 196.882812 C 174.734375 189.839844 172.644531 180.167969 168.585938 173.464844 C 163.109375 164.425781 151.234375 156.230469 138.109375 159.605469 C 130.15625 161.644531 122.078125 162.664062 113.875 162.664062 C 105.667969 162.664062 97.589844 161.644531 89.636719 159.605469 C 76.511719 156.234375 64.636719 164.425781 59.15625 173.46875 C 55.09375 180.171875 52.996094 189.84375 59.320312 196.886719 C 67.628906 206.148438 79.480469 203.859375 87.960938 200.304688 Z M 87.960938 200.304688 " fill-opacity="1" fill-rule="nonzero"/><path fill="#b3b3b3" d="M 194.257812 206.5625 C 205.238281 183.957031 186.046875 158.519531 185.851562 158.265625 C 185.851562 158.265625 201.917969 182.65625 186.800781 201.574219 C 170.054688 222.535156 83.195312 225.121094 49.449219 207.339844 C 22.804688 193.320312 41.898438 158.285156 41.898438 158.285156 C 41.722656 158.539062 22.515625 183.976562 33.496094 206.5625 C 37.859375 215.574219 52.414062 222.6875 75.589844 227.15625 C 88.230469 229.613281 100.992188 230.839844 113.871094 230.839844 C 126.75 230.839844 139.511719 229.613281 152.152344 227.15625 C 175.308594 222.6875 189.882812 215.574219 194.257812 206.5625 Z M 194.257812 206.5625 " fill-opacity="1" fill-rule="nonzero"/><path fill="#4d4d4d" d="M 87.960938 193.808594 C 88.960938 193.394531 89.988281 193.089844 91.050781 192.894531 C 92.113281 192.699219 93.183594 192.613281 94.265625 192.644531 C 95.34375 192.671875 96.40625 192.8125 97.457031 193.0625 C 98.507812 193.316406 99.519531 193.675781 100.496094 194.140625 C 106.125 196.804688 113.757812 196.628906 113.832031 196.636719 L 113.910156 196.636719 C 113.980469 196.636719 121.625 196.804688 127.246094 194.140625 C 129.355469 193.140625 131.578125 192.636719 133.910156 192.636719 C 135.945312 192.632812 137.902344 193.023438 139.78125 193.808594 C 148.265625 197.367188 160.117188 199.65625 168.421875 190.390625 C 174.734375 183.34375 172.644531 173.675781 168.585938 166.972656 C 163.109375 157.929688 151.234375 149.738281 138.101562 153.109375 C 130.152344 155.144531 122.078125 156.164062 113.871094 156.164062 C 105.664062 156.164062 97.585938 155.144531 89.636719 153.109375 C 76.511719 149.730469 64.636719 157.929688 59.15625 166.972656 C 55.09375 173.675781 52.996094 183.34375 59.320312 190.390625 C 67.628906 199.65625 79.476562 197.359375 87.960938 193.808594 Z M 87.960938 193.808594 " fill-opacity="1" fill-rule="nonzero"/><path fill="#4d4d4d" d="M 168.421875 190.390625 C 160.28125 199.460938 148.753906 197.449219 140.304688 194.027344 C 140.128906 193.960938 139.957031 193.882812 139.78125 193.8125 C 137.902344 193.027344 135.945312 192.632812 133.910156 192.636719 C 131.578125 192.636719 129.359375 193.136719 127.25 194.140625 C 122.039062 196.601562 115.128906 196.640625 114.054688 196.628906 L 113.832031 196.628906 C 111.554688 196.640625 109.296875 196.457031 107.050781 196.082031 C 104.777344 195.730469 102.59375 195.082031 100.496094 194.140625 C 99.972656 193.894531 99.4375 193.679688 98.890625 193.492188 C 97.109375 192.871094 95.277344 192.589844 93.394531 192.644531 C 91.511719 192.699219 89.699219 193.089844 87.957031 193.8125 C 79.480469 197.359375 67.628906 199.652344 59.320312 190.390625 C 53.007812 183.34375 55.09375 173.675781 59.15625 166.972656 C 64.636719 157.933594 76.511719 149.738281 89.632812 153.109375 C 98.394531 155.355469 107.292969 156.363281 116.332031 156.125 C 119.570312 156.050781 122.8125 155.808594 126.035156 155.410156 C 128.671875 155.070312 131.300781 154.628906 133.910156 154.085938 C 135.332031 153.792969 136.710938 153.46875 138.101562 153.109375 C 145.378906 151.242188 152.265625 152.925781 157.898438 156.328125 C 162.316406 159.015625 165.878906 162.566406 168.585938 166.972656 C 172.644531 173.675781 174.738281 183.34375 168.421875 190.390625 Z M 168.421875 190.390625 " fill-opacity="1" fill-rule="nonzero"/><path fill="#e6e6e6" d="M 62.796875 254.363281 C 59.898438 250.382812 41.519531 226.160156 28.175781 233.289062 C 26.136719 234.375 24.886719 236.484375 24.453125 239.550781 C 22.507812 253.328125 37.460938 283.824219 54.347656 300.820312 C 54.304688 299.871094 54.28125 298.921875 54.28125 297.972656 C 54.28125 281.847656 54.28125 266.574219 62.015625 255.417969 C 62.265625 255.070312 62.527344 254.710938 62.796875 254.363281 Z M 62.796875 254.363281 " fill-opacity="1" fill-rule="nonzero"/><path fill="#e6e6e6" d="M 126.089844 240.765625 C 131.773438 241.816406 136.09375 243.824219 136.09375 246.902344 C 136.09375 251.726562 125.480469 253.921875 115.613281 253.921875 C 105.746094 253.921875 95.132812 251.726562 95.132812 246.902344 C 95.132812 243.625 100.027344 241.5625 106.25 240.574219 C 57.117188 243.003906 57.113281 267.449219 57.113281 297.964844 C 57.109375 301.035156 57.355469 304.082031 57.851562 307.113281 C 59.34375 307.648438 74.90625 313.089844 96.820312 315.5 C 97.738281 314.289062 98.878906 313.347656 100.238281 312.671875 C 101.597656 312 103.039062 311.664062 104.554688 311.667969 L 129.601562 311.667969 C 131.121094 311.660156 132.5625 311.996094 133.925781 312.671875 C 135.289062 313.347656 136.425781 314.292969 137.34375 315.507812 C 149.035156 314.175781 160.394531 311.457031 171.425781 307.351562 C 171.945312 304.253906 172.203125 301.132812 172.199219 297.992188 C 172.199219 280.988281 171.632812 267.164062 164.460938 257.070312 C 157.640625 247.460938 145.316406 242.183594 126.089844 240.765625 Z M 158.890625 288.425781 C 158.890625 288.613281 158.851562 288.796875 158.78125 288.96875 C 158.710938 289.144531 158.605469 289.296875 158.472656 289.433594 C 158.339844 289.566406 158.1875 289.667969 158.011719 289.742188 C 157.839844 289.8125 157.65625 289.847656 157.46875 289.847656 L 124.847656 289.847656 C 124.660156 289.847656 124.480469 289.8125 124.304688 289.742188 C 124.132812 289.667969 123.976562 289.566406 123.84375 289.433594 C 123.710938 289.296875 123.609375 289.144531 123.535156 288.96875 C 123.464844 288.796875 123.429688 288.613281 123.429688 288.425781 L 123.429688 273.398438 C 123.429688 273.210938 123.464844 273.03125 123.535156 272.855469 C 123.609375 272.679688 123.710938 272.527344 123.84375 272.394531 C 123.976562 272.261719 124.132812 272.15625 124.304688 272.085938 C 124.480469 272.011719 124.660156 271.976562 124.847656 271.976562 L 157.472656 271.976562 C 157.660156 271.976562 157.84375 272.011719 158.015625 272.085938 C 158.191406 272.15625 158.34375 272.261719 158.476562 272.394531 C 158.609375 272.527344 158.714844 272.679688 158.785156 272.855469 C 158.859375 273.03125 158.894531 273.210938 158.894531 273.398438 Z M 158.890625 288.425781 " fill-opacity="1" fill-rule="nonzero"/><path fill="#b3b3b3" d="M 132.765625 273.652344 L 157.757812 273.652344 C 158.074219 273.652344 158.390625 273.683594 158.703125 273.746094 C 159.015625 273.808594 159.320312 273.898438 159.613281 274.019531 C 159.90625 274.144531 160.1875 274.292969 160.453125 274.46875 C 160.71875 274.648438 160.960938 274.847656 161.1875 275.074219 C 161.414062 275.300781 161.613281 275.542969 161.789062 275.808594 C 161.96875 276.074219 162.117188 276.355469 162.238281 276.648438 C 162.359375 276.945312 162.453125 277.246094 162.515625 277.5625 C 162.578125 277.875 162.609375 278.1875 162.609375 278.507812 L 162.609375 288.496094 C 162.609375 288.816406 162.578125 289.132812 162.515625 289.445312 C 162.453125 289.757812 162.359375 290.0625 162.238281 290.355469 C 162.117188 290.648438 161.96875 290.929688 161.789062 291.195312 C 161.613281 291.460938 161.414062 291.707031 161.1875 291.929688 C 160.960938 292.15625 160.71875 292.359375 160.453125 292.535156 C 160.1875 292.710938 159.90625 292.863281 159.613281 292.984375 C 159.320312 293.105469 159.015625 293.199219 158.703125 293.261719 C 158.390625 293.324219 158.074219 293.355469 157.757812 293.355469 L 132.765625 293.355469 C 132.445312 293.355469 132.128906 293.324219 131.816406 293.261719 C 131.507812 293.199219 131.203125 293.105469 130.910156 292.984375 C 130.613281 292.863281 130.335938 292.710938 130.070312 292.535156 C 129.804688 292.359375 129.558594 292.15625 129.335938 291.929688 C 129.109375 291.707031 128.910156 291.460938 128.730469 291.195312 C 128.554688 290.929688 128.40625 290.648438 128.28125 290.355469 C 128.160156 290.0625 128.070312 289.757812 128.007812 289.445312 C 127.945312 289.132812 127.914062 288.816406 127.914062 288.496094 L 127.914062 278.507812 C 127.914062 278.1875 127.945312 277.875 128.007812 277.5625 C 128.070312 277.246094 128.160156 276.945312 128.28125 276.648438 C 128.40625 276.355469 128.554688 276.074219 128.730469 275.808594 C 128.910156 275.542969 129.109375 275.300781 129.335938 275.074219 C 129.558594 274.847656 129.804688 274.648438 130.070312 274.46875 C 130.335938 274.292969 130.613281 274.144531 130.910156 274.019531 C 131.203125 273.898438 131.507812 273.808594 131.816406 273.746094 C 132.128906 273.683594 132.445312 273.652344 132.765625 273.652344 Z M 132.765625 273.652344 " fill-opacity="1" fill-rule="nonzero"/><path fill="#e6e6e6" d="M 200.542969 233.289062 C 187.242188 226.175781 168.9375 250.222656 165.960938 254.320312 C 166.242188 254.679688 166.515625 255.050781 166.78125 255.425781 C 174.4375 266.214844 175.046875 280.472656 175.046875 297.988281 C 175.046875 298.726562 175.046875 299.46875 175 300.199219 C 191.621094 283.089844 206.195312 253.160156 204.277344 239.550781 C 203.832031 236.480469 202.578125 234.375 200.542969 233.289062 Z M 200.542969 233.289062 " fill-opacity="1" fill-rule="nonzero"/><path fill="#00ffff" d="M 126.261719 274.816406 L 156.050781 274.816406 L 156.050781 287.007812 L 126.261719 287.007812 Z M 126.261719 274.816406 " fill-opacity="1" fill-rule="nonzero"/><path fill="#e6e6e6" d="M 139.34375 321.417969 L 139.34375 326.558594 C 139.34375 326.617188 139.34375 326.671875 139.34375 326.730469 C 148.933594 325.503906 158.308594 323.34375 167.46875 320.246094 C 168.898438 317.140625 170.003906 313.925781 170.785156 310.597656 C 160.410156 314.324219 149.753906 316.855469 138.8125 318.1875 C 139.171875 319.234375 139.347656 320.3125 139.34375 321.417969 Z M 139.34375 321.417969 " fill-opacity="1" fill-rule="nonzero"/><path fill="#10c6c1" d="M 104.554688 333.492188 L 129.601562 333.492188 C 130.054688 333.492188 130.503906 333.449219 130.949219 333.359375 C 131.394531 333.269531 131.828125 333.140625 132.25 332.964844 C 132.667969 332.792969 133.066406 332.578125 133.445312 332.324219 C 133.820312 332.070312 134.171875 331.785156 134.492188 331.460938 C 134.8125 331.140625 135.101562 330.789062 135.351562 330.410156 C 135.605469 330.03125 135.816406 329.632812 135.988281 329.210938 C 136.164062 328.792969 136.292969 328.359375 136.382812 327.910156 C 136.46875 327.464844 136.511719 327.015625 136.511719 326.558594 L 136.511719 321.417969 C 136.511719 320.964844 136.46875 320.515625 136.378906 320.066406 C 136.289062 319.621094 136.15625 319.191406 135.984375 318.769531 C 135.808594 318.351562 135.597656 317.953125 135.34375 317.574219 C 135.09375 317.195312 134.808594 316.847656 134.484375 316.527344 C 134.164062 316.203125 133.816406 315.917969 133.4375 315.664062 C 133.0625 315.414062 132.664062 315.199219 132.246094 315.027344 C 131.824219 314.851562 131.394531 314.71875 130.949219 314.632812 C 130.503906 314.542969 130.054688 314.5 129.601562 314.496094 L 104.554688 314.496094 C 104.101562 314.496094 103.652344 314.542969 103.207031 314.628906 C 102.761719 314.71875 102.328125 314.851562 101.910156 315.023438 C 101.492188 315.195312 101.09375 315.410156 100.714844 315.664062 C 100.335938 315.914062 99.988281 316.203125 99.667969 316.523438 C 99.347656 316.84375 99.058594 317.195312 98.808594 317.570312 C 98.554688 317.949219 98.34375 318.347656 98.167969 318.769531 C 97.996094 319.1875 97.863281 319.621094 97.777344 320.066406 C 97.6875 320.511719 97.644531 320.964844 97.644531 321.417969 L 97.644531 326.558594 C 97.644531 327.054688 97.695312 327.542969 97.804688 328.023438 C 97.972656 328.796875 98.265625 329.519531 98.679688 330.191406 C 99.09375 330.863281 99.609375 331.449219 100.222656 331.945312 C 100.835938 332.441406 101.511719 332.824219 102.257812 333.089844 C 103 333.355469 103.765625 333.488281 104.554688 333.492188 Z M 104.554688 333.492188 " fill-opacity="1" fill-rule="nonzero"/><path fill="#00ffff" d="M 135.46875 317.765625 C 135.160156 317.265625 134.792969 316.808594 134.371094 316.402344 C 133.945312 315.996094 133.476562 315.648438 132.960938 315.363281 C 132.449219 315.078125 131.90625 314.859375 131.335938 314.714844 C 130.765625 314.566406 130.1875 314.496094 129.601562 314.496094 L 104.554688 314.496094 C 104.101562 314.496094 103.652344 314.542969 103.207031 314.628906 C 102.761719 314.71875 102.328125 314.851562 101.910156 315.023438 C 101.492188 315.195312 101.09375 315.410156 100.714844 315.664062 C 100.335938 315.914062 99.988281 316.203125 99.667969 316.523438 C 99.347656 316.84375 99.058594 317.195312 98.808594 317.570312 C 98.554688 317.949219 98.34375 318.347656 98.167969 318.769531 C 97.996094 319.1875 97.863281 319.621094 97.777344 320.066406 C 97.6875 320.511719 97.644531 320.964844 97.644531 321.417969 L 97.644531 325.511719 C 97.855469 326.226562 98.175781 326.894531 98.601562 327.507812 C 99.027344 328.121094 99.539062 328.65625 100.136719 329.101562 C 100.734375 329.550781 101.386719 329.894531 102.09375 330.132812 C 102.800781 330.371094 103.527344 330.492188 104.277344 330.496094 L 129.320312 330.496094 C 130.105469 330.492188 130.867188 330.359375 131.609375 330.097656 C 132.347656 329.835938 133.023438 329.460938 133.636719 328.96875 C 134.25 328.476562 134.765625 327.898438 135.179688 327.234375 C 135.597656 326.566406 135.890625 325.851562 136.066406 325.085938 C 136.179688 324.585938 136.234375 324.085938 136.230469 323.574219 L 136.230469 319.445312 C 136.054688 318.851562 135.800781 318.289062 135.46875 317.765625 Z M 135.46875 317.765625 " fill-opacity="1" fill-rule="nonzero"/><path fill="#b3b3b3" d="M 157.308594 338.554688 C 155.355469 340.296875 153.292969 341.894531 151.121094 343.347656 C 153.746094 346.242188 156.695312 349.265625 160.195312 350.574219 C 163.511719 351.820312 168.09375 351.128906 169.980469 347.378906 C 171.460938 344.425781 170.746094 340.707031 169.582031 338.210938 C 168.296875 335.460938 166.265625 333.195312 164.226562 331.035156 C 162.160156 333.765625 159.855469 336.269531 157.308594 338.554688 Z M 157.308594 338.554688 " fill-opacity="1" fill-rule="nonzero"/><path fill="#00ffff" d="M 182.703125 216.3125 C 116.472656 239.078125 45.199219 216.367188 45.042969 216.3125 C 52.339844 220.339844 62.613281 223.679688 75.589844 226.1875 C 88.230469 228.644531 100.992188 229.875 113.871094 229.875 C 126.75 229.875 139.511719 228.644531 152.152344 226.1875 C 165.132812 223.683594 175.402344 220.34375 182.703125 216.3125 Z M 182.703125 216.3125 " fill-opacity="1" fill-rule="nonzero"/><path fill="#b3b3b3" d="M 95.425781 137.316406 L 105.203125 152.976562 L 121.8125 152.976562 L 132.316406 137.316406 Z M 95.425781 137.316406 " fill-opacity="1" fill-rule="nonzero"/><path fill="#ffffff" d="M 132.316406 137.316406 C 132.316406 137.316406 169.945312 134.671875 189.222656 125.855469 L 135.375 130.875 Z M 132.316406 137.316406 " fill-opacity="1" fill-rule="nonzero"/><path fill="#ffffff" d="M 95.777344 137.425781 C 95.777344 137.425781 58.152344 134.78125 38.878906 125.964844 L 92.722656 130.984375 Z M 95.777344 137.425781 " fill-opacity="1" fill-rule="nonzero"/><path fill="#ffffff" d="M 158.511719 252.207031 C 158.511719 252.671875 158.441406 253.136719 158.300781 253.601562 C 158.160156 254.0625 157.949219 254.523438 157.667969 254.976562 C 157.386719 255.433594 157.039062 255.882812 156.621094 256.328125 C 156.207031 256.773438 155.722656 257.210938 155.171875 257.640625 C 154.621094 258.070312 154.007812 258.492188 153.332031 258.898438 C 152.65625 259.308594 151.917969 259.707031 151.121094 260.09375 C 150.320312 260.480469 149.46875 260.855469 148.554688 261.214844 C 147.644531 261.574219 146.679688 261.917969 145.664062 262.246094 C 144.648438 262.574219 143.585938 262.886719 142.476562 263.183594 C 141.367188 263.476562 140.214844 263.753906 139.019531 264.011719 C 137.824219 264.269531 136.59375 264.507812 135.328125 264.726562 C 134.0625 264.945312 132.765625 265.144531 131.4375 265.324219 C 130.109375 265.5 128.761719 265.65625 127.386719 265.792969 C 126.011719 265.929688 124.621094 266.039062 123.210938 266.132812 C 121.800781 266.222656 120.382812 266.289062 118.953125 266.335938 C 117.523438 266.382812 116.089844 266.402344 114.65625 266.402344 C 113.21875 266.402344 111.785156 266.382812 110.355469 266.335938 C 108.925781 266.289062 107.507812 266.222656 106.097656 266.132812 C 104.691406 266.039062 103.296875 265.929688 101.925781 265.792969 C 100.550781 265.65625 99.199219 265.5 97.871094 265.324219 C 96.546875 265.144531 95.25 264.945312 93.980469 264.726562 C 92.714844 264.507812 91.484375 264.269531 90.289062 264.011719 C 89.09375 263.753906 87.941406 263.476562 86.832031 263.183594 C 85.722656 262.886719 84.660156 262.574219 83.644531 262.246094 C 82.628906 261.917969 81.664062 261.574219 80.753906 261.214844 C 79.84375 260.855469 78.988281 260.480469 78.191406 260.09375 C 77.390625 259.707031 76.65625 259.308594 75.976562 258.898438 C 75.300781 258.492188 74.6875 258.070312 74.136719 257.640625 C 73.585938 257.210938 73.105469 256.773438 72.6875 256.328125 C 72.269531 255.882812 71.921875 255.433594 71.640625 254.976562 C 71.363281 254.523438 71.152344 254.0625 71.011719 253.601562 C 70.871094 253.136719 70.800781 252.671875 70.800781 252.207031 C 70.800781 251.742188 70.871094 251.28125 71.011719 250.816406 C 71.152344 250.355469 71.363281 249.894531 71.640625 249.4375 C 71.921875 248.984375 72.269531 248.53125 72.6875 248.085938 C 73.105469 247.644531 73.585938 247.207031 74.136719 246.777344 C 74.6875 246.347656 75.300781 245.925781 75.976562 245.515625 C 76.65625 245.105469 77.390625 244.707031 78.191406 244.320312 C 78.988281 243.933594 79.84375 243.5625 80.753906 243.203125 C 81.664062 242.84375 82.628906 242.5 83.644531 242.171875 C 84.660156 241.84375 85.722656 241.53125 86.832031 241.234375 C 87.941406 240.941406 89.09375 240.664062 90.289062 240.40625 C 91.484375 240.148438 92.714844 239.910156 93.980469 239.6875 C 95.25 239.46875 96.546875 239.269531 97.871094 239.09375 C 99.199219 238.914062 100.550781 238.757812 101.925781 238.625 C 103.296875 238.488281 104.691406 238.375 106.097656 238.285156 C 107.507812 238.195312 108.925781 238.125 110.355469 238.082031 C 111.785156 238.035156 113.21875 238.011719 114.65625 238.011719 C 116.089844 238.011719 117.523438 238.035156 118.953125 238.082031 C 120.382812 238.125 121.800781 238.195312 123.210938 238.285156 C 124.621094 238.375 126.011719 238.488281 127.386719 238.625 C 128.761719 238.757812 130.109375 238.914062 131.4375 239.09375 C 132.765625 239.269531 134.0625 239.46875 135.328125 239.6875 C 136.59375 239.910156 137.824219 240.148438 139.019531 240.40625 C 140.214844 240.664062 141.367188 240.941406 142.476562 241.234375 C 143.585938 241.53125 144.648438 241.84375 145.664062 242.171875 C 146.679688 242.5 147.644531 242.84375 148.554688 243.203125 C 149.46875 243.5625 150.320312 243.933594 151.121094 244.320312 C 151.917969 244.707031 152.65625 245.105469 153.332031 245.515625 C 154.007812 245.925781 154.621094 246.347656 155.171875 246.777344 C 155.722656 247.207031 156.207031 247.644531 156.621094 248.085938 C 157.039062 248.53125 157.386719 248.984375 157.667969 249.4375 C 157.949219 249.894531 158.160156 250.355469 158.300781 250.816406 C 158.441406 251.28125 158.511719 251.742188 158.511719 252.207031 Z M 158.511719 252.207031 " fill-opacity="1" fill-rule="nonzero"/><path fill="#b3b3b3" d="M 156.226562 251.683594 C 156.226562 252.109375 156.160156 252.53125 156.027344 252.957031 C 155.894531 253.378906 155.695312 253.800781 155.429688 254.21875 C 155.164062 254.636719 154.832031 255.050781 154.4375 255.457031 C 154.042969 255.863281 153.582031 256.265625 153.0625 256.660156 C 152.542969 257.050781 151.960938 257.4375 151.320312 257.8125 C 150.675781 258.1875 149.976562 258.554688 149.222656 258.90625 C 148.464844 259.261719 147.65625 259.601562 146.789062 259.933594 C 145.925781 260.261719 145.015625 260.578125 144.050781 260.878906 C 143.089844 261.179688 142.082031 261.464844 141.027344 261.734375 C 139.976562 262.003906 138.882812 262.257812 137.75 262.496094 C 136.621094 262.730469 135.453125 262.949219 134.253906 263.152344 C 133.050781 263.351562 131.820312 263.535156 130.5625 263.699219 C 129.304688 263.859375 128.027344 264.003906 126.722656 264.128906 C 125.417969 264.25 124.101562 264.355469 122.765625 264.4375 C 121.429688 264.519531 120.085938 264.582031 118.730469 264.625 C 117.375 264.667969 116.015625 264.6875 114.65625 264.6875 C 113.292969 264.6875 111.933594 264.667969 110.578125 264.625 C 109.226562 264.582031 107.878906 264.519531 106.542969 264.4375 C 105.210938 264.355469 103.890625 264.25 102.585938 264.128906 C 101.285156 264.003906 100.003906 263.859375 98.746094 263.699219 C 97.488281 263.535156 96.257812 263.351562 95.058594 263.152344 C 93.855469 262.949219 92.691406 262.730469 91.558594 262.496094 C 90.425781 262.257812 89.332031 262.003906 88.28125 261.734375 C 87.230469 261.464844 86.222656 261.179688 85.257812 260.878906 C 84.296875 260.578125 83.382812 260.261719 82.519531 259.933594 C 81.65625 259.601562 80.84375 259.261719 80.089844 258.90625 C 79.332031 258.554688 78.632812 258.1875 77.992188 257.8125 C 77.347656 257.4375 76.769531 257.050781 76.246094 256.660156 C 75.726562 256.265625 75.269531 255.863281 74.871094 255.457031 C 74.476562 255.050781 74.148438 254.636719 73.882812 254.21875 C 73.617188 253.800781 73.414062 253.378906 73.28125 252.957031 C 73.148438 252.53125 73.082031 252.109375 73.082031 251.683594 C 73.082031 251.257812 73.148438 250.832031 73.28125 250.40625 C 73.414062 249.984375 73.617188 249.5625 73.882812 249.144531 C 74.148438 248.726562 74.476562 248.316406 74.871094 247.90625 C 75.269531 247.5 75.726562 247.097656 76.246094 246.707031 C 76.769531 246.3125 77.347656 245.925781 77.992188 245.550781 C 78.632812 245.175781 79.332031 244.8125 80.089844 244.457031 C 80.84375 244.101562 81.65625 243.761719 82.519531 243.433594 C 83.382812 243.101562 84.296875 242.789062 85.257812 242.484375 C 86.222656 242.183594 87.230469 241.898438 88.28125 241.628906 C 89.332031 241.359375 90.425781 241.105469 91.558594 240.867188 C 92.691406 240.632812 93.855469 240.414062 95.058594 240.210938 C 96.257812 240.011719 97.488281 239.828125 98.746094 239.667969 C 100.003906 239.503906 101.285156 239.359375 102.585938 239.238281 C 103.890625 239.113281 105.210938 239.011719 106.542969 238.925781 C 107.878906 238.84375 109.226562 238.78125 110.578125 238.738281 C 111.933594 238.699219 113.292969 238.675781 114.65625 238.675781 C 116.015625 238.675781 117.375 238.699219 118.730469 238.738281 C 120.085938 238.78125 121.429688 238.84375 122.765625 238.925781 C 124.101562 239.011719 125.417969 239.113281 126.722656 239.238281 C 128.027344 239.359375 129.304688 239.503906 130.5625 239.667969 C 131.820312 239.828125 133.050781 240.011719 134.253906 240.210938 C 135.453125 240.414062 136.621094 240.632812 137.75 240.867188 C 138.882812 241.105469 139.976562 241.359375 141.027344 241.628906 C 142.082031 241.898438 143.089844 242.183594 144.050781 242.484375 C 145.015625 242.789062 145.925781 243.101562 146.789062 243.433594 C 147.65625 243.761719 148.464844 244.101562 149.222656 244.457031 C 149.976562 244.8125 150.675781 245.175781 151.320312 245.550781 C 151.960938 245.925781 152.542969 246.3125 153.0625 246.707031 C 153.582031 247.097656 154.042969 247.5 154.4375 247.90625 C 154.832031 248.316406 155.164062 248.726562 155.429688 249.144531 C 155.695312 249.5625 155.894531 249.984375 156.027344 250.40625 C 156.160156 250.832031 156.226562 251.257812 156.226562 251.683594 Z M 156.226562 251.683594 " fill-opacity="1" fill-rule="nonzero"/><path fill="#00ffff" d="M 133.261719 246.902344 C 133.261719 247.175781 133.148438 247.449219 132.921875 247.71875 C 132.695312 247.988281 132.363281 248.25 131.917969 248.503906 C 131.476562 248.757812 130.929688 249 130.289062 249.226562 C 129.644531 249.457031 128.910156 249.667969 128.09375 249.863281 C 127.273438 250.058594 126.382812 250.230469 125.417969 250.382812 C 124.453125 250.535156 123.4375 250.664062 122.367188 250.769531 C 121.296875 250.875 120.191406 250.957031 119.054688 251.007812 C 117.917969 251.0625 116.769531 251.089844 115.613281 251.089844 C 114.453125 251.089844 113.304688 251.0625 112.167969 251.007812 C 111.03125 250.957031 109.929688 250.875 108.855469 250.769531 C 107.785156 250.664062 106.769531 250.535156 105.804688 250.382812 C 104.84375 250.230469 103.949219 250.058594 103.132812 249.863281 C 102.3125 249.667969 101.578125 249.457031 100.9375 249.226562 C 100.292969 249 99.75 248.757812 99.304688 248.503906 C 98.863281 248.25 98.527344 247.988281 98.300781 247.71875 C 98.074219 247.449219 97.960938 247.175781 97.960938 246.902344 C 97.960938 246.625 98.074219 246.355469 98.300781 246.085938 C 98.527344 245.8125 98.863281 245.550781 99.304688 245.296875 C 99.75 245.042969 100.292969 244.804688 100.9375 244.574219 C 101.578125 244.347656 102.3125 244.132812 103.132812 243.941406 C 103.949219 243.746094 104.84375 243.570312 105.804688 243.417969 C 106.769531 243.265625 107.785156 243.136719 108.855469 243.03125 C 109.929688 242.925781 111.03125 242.847656 112.167969 242.792969 C 113.304688 242.738281 114.453125 242.714844 115.613281 242.714844 C 116.769531 242.714844 117.917969 242.738281 119.054688 242.792969 C 120.191406 242.847656 121.296875 242.925781 122.367188 243.03125 C 123.4375 243.136719 124.453125 243.265625 125.417969 243.417969 C 126.382812 243.570312 127.273438 243.746094 128.09375 243.941406 C 128.910156 244.132812 129.644531 244.347656 130.289062 244.574219 C 130.929688 244.804688 131.476562 245.042969 131.917969 245.296875 C 132.363281 245.550781 132.695312 245.8125 132.921875 246.085938 C 133.148438 246.355469 133.261719 246.625 133.261719 246.902344 Z M 133.261719 246.902344 " fill-opacity="1" fill-rule="nonzero"/><path fill="#b3b3b3" d="M 57.851562 307.113281 C 59.042969 307.539062 69.191406 311.085938 84.378906 313.730469 C 60.867188 306.511719 57.582031 279.632812 57.582031 279.632812 C 57.109375 285.378906 57.109375 291.550781 57.109375 297.992188 C 57.105469 301.054688 57.355469 304.09375 57.851562 307.113281 Z M 57.851562 307.113281 " fill-opacity="1" fill-rule="nonzero"/><path fill="#b3b3b3" d="M 171.777344 307.113281 C 170.585938 307.539062 160.433594 311.085938 145.25 313.730469 C 168.765625 306.511719 172.050781 279.632812 172.050781 279.632812 C 172.523438 285.378906 172.523438 291.550781 172.523438 297.992188 C 172.523438 301.054688 172.273438 304.09375 171.777344 307.113281 Z M 171.777344 307.113281 " fill-opacity="1" fill-rule="nonzero"/><path fill="#10c6c1" d="M 126.261719 283.308594 L 156.230469 283.308594 L 156.058594 287.007812 L 126.261719 287.007812 Z M 126.261719 283.308594 " fill-opacity="1" fill-rule="nonzero"/><path fill="#b3b3b3" d="M 203.730469 248.660156 C 202.539062 252.078125 200.800781 255.1875 198.519531 257.996094 C 195.800781 261.242188 192.207031 263.824219 188.125 264.957031 C 187.046875 265.257812 185.949219 265.457031 184.832031 265.550781 C 183.714844 265.644531 182.597656 265.636719 181.484375 265.519531 C 180.367188 265.40625 179.273438 265.191406 178.199219 264.871094 C 177.125 264.554688 176.089844 264.136719 175.089844 263.625 C 174.09375 263.113281 173.152344 262.511719 172.269531 261.824219 C 171.382812 261.136719 170.570312 260.371094 169.828125 259.53125 C 169.085938 258.691406 168.425781 257.789062 167.851562 256.824219 C 167.277344 255.859375 166.796875 254.851562 166.410156 253.796875 L 166.519531 255.082031 C 166.601562 255.195312 166.691406 255.304688 166.773438 255.425781 C 174.425781 266.214844 175.039062 280.472656 175.039062 297.988281 C 175.039062 298.726562 175.039062 299.46875 174.992188 300.199219 C 188.515625 286.277344 200.679688 263.863281 203.730469 248.660156 Z M 203.730469 248.660156 " fill-opacity="1" fill-rule="nonzero"/><path fill="#b3b3b3" d="M 24.953125 248.660156 C 26.144531 252.078125 27.882812 255.1875 30.164062 257.996094 C 31.507812 259.652344 33.066406 261.074219 34.835938 262.257812 C 36.609375 263.445312 38.515625 264.34375 40.558594 264.957031 C 41.636719 265.257812 42.734375 265.457031 43.851562 265.550781 C 44.96875 265.644531 46.085938 265.636719 47.199219 265.519531 C 48.316406 265.40625 49.410156 265.191406 50.484375 264.871094 C 51.558594 264.554688 52.59375 264.136719 53.59375 263.625 C 54.589844 263.113281 55.53125 262.511719 56.414062 261.824219 C 57.300781 261.136719 58.113281 260.371094 58.855469 259.53125 C 59.601562 258.691406 60.257812 257.789062 60.832031 256.824219 C 61.40625 255.859375 61.886719 254.851562 62.273438 253.796875 L 62.164062 255.082031 L 61.914062 255.425781 C 54.257812 266.214844 53.644531 280.472656 53.644531 297.988281 C 53.644531 298.726562 53.644531 299.46875 53.695312 300.199219 C 40.15625 286.277344 27.984375 263.863281 24.953125 248.660156 Z M 24.953125 248.660156 " fill-opacity="1" fill-rule="nonzero"/><path fill="#b3b3b3" d="M 169.871094 315.503906 C 159.773438 319.074219 149.417969 321.535156 138.792969 322.886719 L 139.34375 326.574219 C 139.34375 326.628906 139.34375 326.6875 139.34375 326.746094 C 148.933594 325.519531 158.308594 323.355469 167.46875 320.261719 C 167.808594 319.507812 169.558594 316.28125 169.871094 315.503906 Z M 169.871094 315.503906 " fill-opacity="1" fill-rule="nonzero"/><path fill="#b3b3b3" d="M 59.84375 315.503906 C 76.621094 321.425781 94.8125 322.496094 94.8125 322.496094 L 94.8125 326.726562 C 94.8125 326.78125 90.363281 326.6875 90.367188 326.726562 C 80.777344 325.5 71.398438 323.339844 62.238281 320.242188 C 61.902344 319.507812 60.148438 316.28125 59.84375 315.503906 Z M 59.84375 315.503906 " fill-opacity="1" fill-rule="nonzero"/><path fill="#666666" d="M 126.042969 155.410156 L 107.050781 196.082031 C 104.777344 195.730469 102.59375 195.082031 100.496094 194.140625 C 99.972656 193.894531 99.4375 193.679688 98.890625 193.492188 L 116.332031 156.125 C 119.570312 156.050781 122.8125 155.8125 126.042969 155.410156 Z M 126.042969 155.410156 " fill-opacity="1" fill-rule="nonzero"/><path fill="#666666" d="M 157.898438 156.328125 L 140.304688 194.027344 C 140.128906 193.960938 139.957031 193.882812 139.78125 193.8125 C 137.902344 193.027344 135.945312 192.632812 133.910156 192.636719 C 131.578125 192.636719 129.359375 193.136719 127.25 194.140625 C 122.039062 196.601562 115.128906 196.640625 114.054688 196.628906 L 133.910156 154.085938 C 135.332031 153.792969 136.710938 153.46875 138.101562 153.109375 C 145.378906 151.242188 152.265625 152.925781 157.898438 156.328125 Z M 157.898438 156.328125 " fill-opacity="1" fill-rule="nonzero"/><g clip-path="url(#07ad3f0537)"><path fill="#102628" d="M 207.625 239.074219 C 207.03125 234.875 205.191406 231.914062 202.140625 230.285156 C 187.195312 222.300781 168.957031 244.609375 164 251.222656 C 154.605469 241.523438 138.738281 236.96875 114.671875 236.96875 C 90.097656 236.96875 74.039062 241.527344 64.746094 251.234375 C 59.785156 244.644531 41.539062 222.292969 26.5625 230.277344 C 23.527344 231.914062 21.679688 234.875 21.089844 239.074219 C 18.71875 255.722656 36.59375 288.332031 52.941406 304.21875 C 53.265625 304.53125 53.652344 304.707031 54.101562 304.742188 C 54.5625 308.902344 55.488281 312.957031 56.886719 316.90625 C 58.285156 320.851562 60.113281 324.585938 62.371094 328.109375 C 60.078125 330.523438 57.503906 333.261719 55.871094 336.75 C 53.925781 340.921875 53.792969 345.460938 55.515625 348.890625 C 57.503906 352.847656 61.386719 354.542969 65.167969 354.542969 C 66.664062 354.546875 68.117188 354.285156 69.523438 353.765625 C 73.902344 352.128906 77.261719 348.59375 80.214844 345.316406 C 90.121094 351.316406 102.007812 354.546875 114.65625 354.546875 C 127.074219 354.546875 138.78125 351.429688 148.582031 345.628906 C 151.472656 348.816406 154.738281 352.179688 159.003906 353.765625 C 160.410156 354.285156 161.863281 354.546875 163.363281 354.542969 C 167.152344 354.542969 171.027344 352.855469 173.007812 348.914062 C 174.734375 345.484375 174.601562 340.945312 172.65625 336.777344 C 171.136719 333.523438 168.789062 330.921875 166.621094 328.628906 C 167.917969 326.675781 169.074219 324.648438 170.097656 322.542969 C 170.203125 322.382812 170.289062 322.210938 170.347656 322.03125 C 172.316406 317.851562 173.730469 313.492188 174.589844 308.953125 C 174.625 308.828125 174.648438 308.699219 174.664062 308.570312 C 174.90625 307.253906 175.101562 305.933594 175.246094 304.589844 C 175.453125 304.5 175.636719 304.375 175.796875 304.21875 C 192.125 288.332031 209.972656 255.722656 207.625 239.074219 Z M 200.273438 233.792969 C 202.167969 234.800781 203.289062 236.714844 203.703125 239.628906 C 204.175781 242.949219 203.632812 247.300781 202.308594 252.179688 C 198.519531 242.484375 189.476562 238.097656 184.554688 236.375 C 189.804688 232.957031 195.40625 231.1875 200.273438 233.792969 Z M 180.5625 239.328125 C 181.949219 239.617188 198.339844 243.328125 199.984375 259.328125 C 197.289062 266.292969 193.992188 272.960938 190.09375 279.328125 C 190.417969 274.9375 190.058594 270.601562 189.015625 266.320312 C 187.972656 262.042969 186.300781 258.027344 183.992188 254.277344 C 181.640625 250.441406 178.730469 247.089844 175.261719 244.226562 C 176.941406 242.5 178.707031 240.867188 180.5625 239.328125 Z M 115.621094 243.277344 C 126.382812 243.277344 132.050781 245.800781 132.675781 246.902344 C 132.042969 247.996094 126.378906 250.519531 115.621094 250.519531 C 104.863281 250.519531 99.199219 247.996094 98.566406 246.902344 C 99.1875 245.800781 104.855469 243.277344 115.621094 243.277344 Z M 99.816406 241.609375 C 96.734375 242.78125 94.574219 244.480469 94.574219 246.902344 C 94.574219 252.890625 107.804688 254.488281 115.621094 254.488281 C 123.4375 254.488281 136.671875 252.890625 136.671875 246.902344 C 136.671875 244.710938 134.902344 243.105469 132.273438 241.953125 C 147.796875 243.964844 158.050781 249.007812 164.011719 257.394531 C 171.085938 267.351562 171.652344 281.082031 171.652344 297.988281 C 171.652344 300.988281 171.410156 303.96875 170.929688 306.933594 C 160.140625 310.917969 149.035156 313.574219 137.609375 314.902344 C 136.632812 313.695312 135.445312 312.757812 134.042969 312.09375 C 132.640625 311.425781 131.164062 311.097656 129.613281 311.105469 L 104.554688 311.105469 C 103.007812 311.101562 101.53125 311.433594 100.132812 312.097656 C 98.734375 312.761719 97.542969 313.695312 96.570312 314.902344 C 75.957031 312.601562 61.039062 307.628906 58.355469 306.691406 C 57.902344 303.808594 57.675781 300.910156 57.675781 297.992188 C 57.675781 282.394531 57.675781 267.660156 64.78125 257.378906 C 70.988281 248.460938 82.265625 243.339844 99.808594 241.609375 Z M 167.039062 319.804688 C 158.195312 322.769531 149.152344 324.863281 139.90625 326.085938 L 139.90625 321.402344 C 139.90625 320.46875 139.785156 319.550781 139.535156 318.648438 C 149.929688 317.335938 160.074219 314.949219 169.964844 311.484375 C 169.234375 314.34375 168.257812 317.117188 167.039062 319.804688 Z M 62.035156 319.273438 C 60.882812 316.65625 59.964844 313.957031 59.273438 311.183594 C 70.820312 314.796875 82.601562 317.289062 94.621094 318.667969 C 94.371094 319.566406 94.246094 320.484375 94.246094 321.417969 L 94.246094 326.085938 C 83.3125 324.746094 72.578125 322.476562 62.035156 319.273438 Z M 98.359375 327.914062 C 98.261719 327.472656 98.210938 327.027344 98.210938 326.574219 L 98.210938 321.417969 C 98.210938 321 98.25 320.585938 98.332031 320.179688 C 98.414062 319.769531 98.535156 319.371094 98.691406 318.984375 C 98.851562 318.601562 99.046875 318.234375 99.277344 317.886719 C 99.511719 317.539062 99.773438 317.21875 100.066406 316.925781 C 100.363281 316.628906 100.683594 316.367188 101.027344 316.132812 C 101.375 315.902344 101.742188 315.707031 102.125 315.546875 C 102.511719 315.386719 102.910156 315.269531 103.316406 315.1875 C 103.726562 315.105469 104.140625 315.066406 104.554688 315.066406 L 129.601562 315.066406 C 130.015625 315.066406 130.429688 315.105469 130.839844 315.1875 C 131.246094 315.269531 131.644531 315.386719 132.027344 315.546875 C 132.414062 315.707031 132.78125 315.902344 133.125 316.132812 C 133.472656 316.367188 133.792969 316.628906 134.089844 316.925781 C 134.382812 317.21875 134.644531 317.539062 134.878906 317.886719 C 135.109375 318.234375 135.304688 318.601562 135.464844 318.984375 C 135.621094 319.371094 135.742188 319.769531 135.824219 320.179688 C 135.902344 320.585938 135.945312 321 135.941406 321.417969 L 135.941406 326.558594 C 135.945312 327.027344 135.894531 327.488281 135.792969 327.945312 C 135.632812 328.648438 135.359375 329.304688 134.980469 329.917969 C 134.597656 330.527344 134.125 331.058594 133.5625 331.507812 C 133 331.960938 132.378906 332.304688 131.699219 332.546875 C 131.019531 332.785156 130.320312 332.90625 129.601562 332.910156 L 104.554688 332.910156 C 103.832031 332.90625 103.128906 332.785156 102.449219 332.542969 C 101.769531 332.300781 101.144531 331.953125 100.582031 331.5 C 100.019531 331.046875 99.546875 330.511719 99.164062 329.898438 C 98.785156 329.28125 98.515625 328.621094 98.359375 327.914062 Z M 53.464844 244.226562 C 49.996094 247.089844 47.085938 250.441406 44.730469 254.277344 C 42.425781 258.027344 40.75 262.042969 39.707031 266.320312 C 38.667969 270.601562 38.308594 274.9375 38.632812 279.328125 C 34.738281 272.960938 31.441406 266.292969 28.742188 259.328125 C 30.378906 243.316406 46.800781 239.605469 48.164062 239.328125 C 50.019531 240.863281 51.785156 242.5 53.464844 244.226562 Z M 25.015625 239.628906 C 25.425781 236.714844 26.5625 234.800781 28.460938 233.792969 C 33.328125 231.1875 38.933594 232.957031 44.179688 236.375 C 39.265625 238.097656 30.230469 242.480469 26.425781 252.179688 C 25.085938 247.300781 24.546875 242.964844 25.015625 239.628906 Z M 43.433594 286.71875 C 43.550781 286.382812 43.570312 286.039062 43.5 285.6875 C 38.550781 262.144531 53.125 249.5 56.191406 247.136719 C 58.996094 250.265625 61.101562 253.027344 62.09375 254.375 C 61.914062 254.621094 61.726562 254.851562 61.546875 255.125 C 53.710938 266.429688 53.710938 281.765625 53.710938 298 C 53.710938 298.476562 53.710938 298.949219 53.710938 299.390625 C 49.96875 295.425781 46.539062 291.203125 43.433594 286.71875 Z M 68.136719 350.042969 C 65.035156 351.203125 60.792969 350.578125 59.0625 347.125 C 57.894531 344.804688 58.050781 341.480469 59.464844 338.453125 C 60.710938 335.789062 62.695312 333.566406 64.675781 331.445312 C 66.75 334.175781 69.0625 336.6875 71.617188 338.976562 C 73.273438 340.460938 75.011719 341.839844 76.828125 343.117188 C 74.308594 345.914062 71.457031 348.804688 68.136719 350.042969 Z M 64.511719 324.148438 C 74.484375 326.945312 84.617188 328.949219 94.902344 330.164062 C 95.269531 331.148438 95.777344 332.054688 96.421875 332.886719 C 97.066406 333.714844 97.820312 334.429688 98.683594 335.03125 C 99.542969 335.632812 100.476562 336.09375 101.476562 336.410156 C 102.480469 336.726562 103.503906 336.890625 104.554688 336.894531 L 129.601562 336.894531 C 130.648438 336.886719 131.671875 336.726562 132.671875 336.410156 C 133.671875 336.09375 134.601562 335.636719 135.464844 335.039062 C 136.324219 334.441406 137.078125 333.726562 137.722656 332.898438 C 138.367188 332.074219 138.878906 331.167969 139.25 330.1875 C 147.789062 329.117188 156.179688 327.328125 164.414062 324.824219 C 154.9375 340.597656 136.832031 350.574219 114.671875 350.574219 C 92.171875 350.574219 73.890625 340.3125 64.511719 324.148438 Z M 169.054688 338.453125 C 170.476562 341.480469 170.625 344.804688 169.457031 347.125 C 167.722656 350.578125 163.484375 351.203125 160.382812 350.042969 C 157.199219 348.851562 154.441406 346.144531 151.972656 343.457031 C 153.960938 342.085938 155.859375 340.589844 157.65625 338.976562 C 160.066406 336.820312 162.257812 334.464844 164.242188 331.910156 C 166.109375 333.890625 167.898438 335.984375 169.054688 338.453125 Z M 175.59375 298.738281 C 175.59375 298.484375 175.59375 298.261719 175.59375 297.988281 C 175.59375 280.367188 174.972656 266.019531 167.21875 255.09375 C 167.03125 254.832031 166.839844 254.574219 166.644531 254.320312 C 167.648438 252.957031 169.742188 250.222656 172.519531 247.128906 C 175.585938 249.5 190.160156 262.136719 185.207031 285.675781 C 185.136719 286.023438 185.15625 286.367188 185.269531 286.703125 C 182.328125 290.945312 179.101562 294.953125 175.59375 298.738281 Z M 175.59375 298.738281 " fill-opacity="1" fill-rule="nonzero"/></g><g clip-path="url(#f6682bbd7b)"><path fill="#102628" d="M 30.4375 207.089844 C 35.355469 217.222656 50.335938 224.773438 74.945312 229.539062 C 87.800781 232.03125 100.777344 233.28125 113.875 233.285156 C 126.96875 233.28125 139.941406 232.03125 152.796875 229.539062 C 177.429688 224.792969 192.386719 217.207031 197.324219 207.089844 C 208.3125 184.421875 192.1875 160.265625 189.046875 155.894531 L 192.835938 124.363281 C 192.855469 124.207031 192.855469 124.050781 192.839844 123.894531 C 192.820312 123.742188 192.785156 123.589844 192.730469 123.441406 C 192.679688 123.296875 192.609375 123.15625 192.523438 123.027344 C 192.4375 122.894531 192.335938 122.777344 192.222656 122.667969 C 192.109375 122.5625 191.984375 122.46875 191.847656 122.394531 C 191.710938 122.316406 191.570312 122.253906 191.417969 122.210938 C 191.269531 122.167969 191.117188 122.144531 190.960938 122.136719 C 190.804688 122.128906 190.648438 122.140625 190.496094 122.171875 C 190.128906 122.238281 154.019531 128.886719 135.375 128.886719 C 134.761719 128.886719 134.253906 129.121094 133.859375 129.59375 L 130.207031 133.933594 L 113.875 134.328125 L 97.539062 133.933594 L 93.882812 129.59375 C 93.488281 129.121094 92.980469 128.886719 92.367188 128.886719 C 73.726562 128.886719 37.609375 122.238281 37.25 122.171875 C 37.097656 122.140625 36.945312 122.132812 36.789062 122.140625 C 36.632812 122.148438 36.480469 122.171875 36.332031 122.214844 C 36.179688 122.261719 36.039062 122.320312 35.902344 122.398438 C 35.769531 122.476562 35.644531 122.566406 35.53125 122.675781 C 35.417969 122.78125 35.316406 122.898438 35.230469 123.03125 C 35.144531 123.160156 35.078125 123.296875 35.023438 123.445312 C 34.96875 123.589844 34.933594 123.742188 34.917969 123.898438 C 34.902344 124.050781 34.902344 124.207031 34.921875 124.363281 L 38.710938 155.894531 C 35.566406 160.265625 19.429688 184.421875 30.4375 207.089844 Z M 42.347656 157.648438 C 42.679688 157.21875 42.8125 156.738281 42.742188 156.203125 L 39.179688 126.554688 C 47.800781 128.082031 75.078125 132.679688 91.460938 132.851562 L 95.101562 137.175781 C 95.484375 137.636719 95.972656 137.871094 96.570312 137.882812 L 113.84375 138.296875 L 113.941406 138.296875 L 131.210938 137.882812 C 131.808594 137.871094 132.296875 137.636719 132.679688 137.175781 L 136.316406 132.851562 C 152.664062 132.679688 179.941406 128.082031 188.570312 126.554688 L 185.003906 156.203125 C 184.941406 156.738281 185.074219 157.21875 185.398438 157.648438 C 185.59375 157.898438 204.5625 183.070312 193.746094 205.351562 C 189.480469 214.175781 175.042969 221.191406 152.058594 225.636719 C 139.453125 228.089844 126.726562 229.3125 113.886719 229.3125 C 101.042969 229.3125 88.316406 228.089844 75.710938 225.636719 C 52.71875 221.191406 38.289062 214.175781 34.023438 205.351562 C 23.183594 183.070312 42.152344 157.898438 42.347656 157.648438 Z M 42.347656 157.648438 " fill-opacity="1" fill-rule="nonzero"/></g><path fill="#102628" d="M 89.273438 196.949219 C 90.847656 196.296875 92.484375 195.996094 94.1875 196.042969 C 95.886719 196.089844 97.503906 196.480469 99.042969 197.214844 C 105.199219 200.140625 113.074219 200.058594 113.875 200.058594 C 114.671875 200.058594 122.527344 200.164062 128.699219 197.214844 C 130.234375 196.480469 131.855469 196.089844 133.554688 196.042969 C 135.257812 195.996094 136.894531 196.296875 138.46875 196.949219 C 142.289062 198.550781 147.742188 200.269531 153.507812 200.269531 C 159.480469 200.269531 165.785156 198.417969 170.949219 192.65625 C 177.273438 185.601562 177.476562 175.105469 171.488281 165.203125 C 165.179688 154.769531 152.144531 145.984375 137.261719 149.808594 C 129.585938 151.773438 121.789062 152.757812 113.871094 152.757812 C 105.949219 152.757812 98.15625 151.773438 90.480469 149.808594 C 75.597656 145.984375 62.566406 154.789062 56.25 165.207031 C 50.265625 175.089844 50.472656 185.601562 56.792969 192.660156 C 66.9375 203.980469 81.515625 200.207031 89.273438 196.949219 Z M 59.644531 167.265625 C 65.015625 158.398438 76.648438 150.359375 89.488281 153.65625 C 97.484375 155.703125 105.609375 156.726562 113.863281 156.726562 C 122.113281 156.726562 130.238281 155.703125 138.234375 153.65625 C 151.082031 150.335938 162.71875 158.398438 168.078125 167.261719 C 172.035156 173.789062 174.082031 183.195312 167.976562 190.003906 C 159.894531 199.015625 148.289062 196.761719 139.980469 193.28125 C 138.03125 192.46875 136 192.0625 133.886719 192.0625 C 131.472656 192.066406 129.171875 192.589844 126.988281 193.628906 C 121.492188 196.230469 113.988281 196.070312 113.910156 196.066406 L 113.800781 196.066406 C 113.730469 196.066406 106.222656 196.230469 100.722656 193.628906 C 99.710938 193.144531 98.664062 192.773438 97.574219 192.511719 C 96.484375 192.25 95.382812 192.105469 94.261719 192.074219 C 93.144531 192.042969 92.03125 192.132812 90.933594 192.335938 C 89.832031 192.539062 88.765625 192.859375 87.730469 193.285156 C 79.414062 196.769531 67.832031 199.03125 59.726562 190.007812 C 53.636719 183.199219 55.6875 173.792969 59.644531 167.265625 Z M 59.644531 167.265625 " fill-opacity="1" fill-rule="nonzero"/><path fill="#102628" d="M 124.847656 290.410156 L 157.472656 290.410156 C 157.734375 290.410156 157.988281 290.359375 158.230469 290.257812 C 158.472656 290.15625 158.6875 290.011719 158.875 289.828125 C 159.058594 289.640625 159.203125 289.425781 159.300781 289.183594 C 159.402344 288.941406 159.453125 288.6875 159.453125 288.425781 L 159.453125 273.398438 C 159.453125 273.136719 159.402344 272.882812 159.300781 272.640625 C 159.203125 272.398438 159.058594 272.183594 158.875 271.996094 C 158.6875 271.808594 158.472656 271.667969 158.230469 271.566406 C 157.988281 271.464844 157.734375 271.414062 157.472656 271.414062 L 124.847656 271.414062 C 124.585938 271.414062 124.332031 271.464844 124.089844 271.5625 C 123.847656 271.664062 123.632812 271.808594 123.445312 271.996094 C 123.257812 272.179688 123.117188 272.394531 123.015625 272.640625 C 122.914062 272.882812 122.863281 273.136719 122.863281 273.398438 L 122.863281 288.425781 C 122.863281 288.6875 122.914062 288.941406 123.015625 289.1875 C 123.117188 289.429688 123.257812 289.644531 123.445312 289.828125 C 123.632812 290.015625 123.847656 290.160156 124.089844 290.257812 C 124.332031 290.359375 124.585938 290.410156 124.847656 290.410156 Z M 126.828125 275.382812 L 155.488281 275.382812 L 155.488281 286.4375 L 126.828125 286.4375 Z M 126.828125 275.382812 " fill-opacity="1" fill-rule="nonzero"/><path fill="#00ffff" d="M 152.8125 183.105469 C 152.574219 183.101562 152.347656 183.0625 152.125 182.980469 C 151.902344 182.898438 151.703125 182.777344 151.523438 182.625 C 151.34375 182.46875 151.195312 182.289062 151.082031 182.082031 C 150.964844 181.875 150.890625 181.652344 150.855469 181.417969 C 150.070312 176.273438 146.476562 171.960938 142.496094 171.386719 C 138.605469 170.828125 134.441406 173.945312 132.769531 178.636719 C 132.683594 178.882812 132.550781 179.105469 132.375 179.300781 C 132.199219 179.5 131.992188 179.652344 131.757812 179.765625 C 131.519531 179.878906 131.269531 179.945312 131.007812 179.957031 C 130.746094 179.972656 130.488281 179.9375 130.242188 179.847656 C 129.992188 179.761719 129.773438 179.628906 129.578125 179.453125 C 129.378906 179.277344 129.226562 179.070312 129.113281 178.835938 C 129 178.597656 128.9375 178.347656 128.921875 178.082031 C 128.90625 177.820312 128.945312 177.566406 129.03125 177.316406 C 131.335938 170.773438 137.226562 166.625 143.058594 167.460938 C 148.789062 168.28125 153.722656 173.902344 154.773438 180.820312 C 154.8125 181.082031 154.800781 181.339844 154.738281 181.59375 C 154.675781 181.851562 154.566406 182.082031 154.414062 182.296875 C 154.257812 182.507812 154.066406 182.679688 153.84375 182.816406 C 153.617188 182.953125 153.375 183.039062 153.113281 183.078125 C 153.015625 183.097656 152.914062 183.105469 152.8125 183.105469 Z M 152.8125 183.105469 " fill-opacity="1" fill-rule="nonzero"/><path fill="#00ffff" d="M 77.535156 183.105469 C 77.433594 183.113281 77.332031 183.113281 77.230469 183.105469 C 76.972656 183.0625 76.730469 182.976562 76.503906 182.839844 C 76.28125 182.703125 76.089844 182.53125 75.933594 182.320312 C 75.777344 182.105469 75.667969 181.875 75.605469 181.617188 C 75.542969 181.363281 75.53125 181.105469 75.570312 180.847656 C 76.625 173.925781 81.550781 168.304688 87.289062 167.484375 C 93.105469 166.644531 99.007812 170.804688 101.316406 177.339844 C 101.414062 177.59375 101.457031 177.851562 101.453125 178.121094 C 101.445312 178.390625 101.382812 178.648438 101.273438 178.894531 C 101.160156 179.136719 101.003906 179.351562 100.804688 179.535156 C 100.605469 179.714844 100.378906 179.851562 100.125 179.941406 C 99.871094 180.03125 99.609375 180.066406 99.34375 180.050781 C 99.074219 180.03125 98.820312 179.964844 98.578125 179.84375 C 98.335938 179.722656 98.128906 179.558594 97.957031 179.351562 C 97.78125 179.148438 97.652344 178.917969 97.574219 178.660156 C 95.925781 173.96875 91.738281 170.847656 87.847656 171.414062 C 83.867188 171.984375 80.269531 176.296875 79.492188 181.445312 C 79.453125 181.675781 79.375 181.894531 79.257812 182.097656 C 79.144531 182.300781 78.996094 182.480469 78.816406 182.632812 C 78.636719 182.785156 78.4375 182.902344 78.21875 182.980469 C 77.996094 183.0625 77.769531 183.101562 77.535156 183.105469 Z M 77.535156 183.105469 " fill-opacity="1" fill-rule="nonzero"/><path fill="#00ffff" d="M 116.007812 191.597656 C 113.289062 191.597656 110.632812 189.796875 108.855469 186.746094 C 108.722656 186.515625 108.640625 186.273438 108.605469 186.007812 C 108.570312 185.746094 108.585938 185.488281 108.652344 185.230469 C 108.722656 184.976562 108.835938 184.742188 108.996094 184.53125 C 109.15625 184.320312 109.351562 184.148438 109.578125 184.015625 C 109.808594 183.882812 110.054688 183.800781 110.316406 183.765625 C 110.578125 183.730469 110.835938 183.746094 111.09375 183.816406 C 111.347656 183.882812 111.582031 183.996094 111.792969 184.160156 C 112 184.320312 112.171875 184.515625 112.304688 184.746094 C 113.355469 186.554688 114.746094 187.628906 116.027344 187.628906 L 116.09375 187.628906 C 117.410156 187.585938 118.875 186.351562 119.914062 184.417969 C 120.039062 184.1875 120.203125 183.988281 120.410156 183.820312 C 120.613281 183.65625 120.839844 183.535156 121.09375 183.460938 C 121.347656 183.382812 121.605469 183.359375 121.867188 183.386719 C 122.128906 183.414062 122.375 183.492188 122.605469 183.617188 C 122.835938 183.742188 123.035156 183.910156 123.203125 184.113281 C 123.367188 184.320312 123.488281 184.546875 123.5625 184.800781 C 123.636719 185.054688 123.660156 185.3125 123.632812 185.574219 C 123.605469 185.835938 123.53125 186.082031 123.402344 186.316406 C 121.652344 189.582031 119.042969 191.53125 116.238281 191.617188 Z M 116.007812 191.597656 " fill-opacity="1" fill-rule="nonzero"/><g clip-path="url(#81eb78fde0)"><path fill="#ffffff" d="M 285.824219 20.527344 C 245.175781 20.527344 213.242188 45.691406 213.242188 76.65625 C 213.242188 92.140625 224.855469 107.625 237.433594 118.269531 C 236.46875 128.914062 220.015625 133.753906 213.242188 140.527344 C 227.757812 140.527344 245.175781 135.691406 254.855469 127.949219 C 262.597656 129.882812 278.082031 132.785156 286.789062 132.785156 C 327.433594 132.785156 359.371094 107.625 359.371094 76.65625 C 359.371094 45.691406 326.46875 20.527344 285.824219 20.527344 Z M 285.824219 20.527344 " fill-opacity="1" fill-rule="nonzero"/></g><g fill="#000000" fill-opacity="1"><g transform="translate(224.713245, 87.653301)"><g><path d="M 6.34375 0.09375 C 5.300781 0.09375 4.367188 -0.128906 3.546875 -0.578125 C 2.722656 -1.035156 2.078125 -1.671875 1.609375 -2.484375 C 1.148438 -3.304688 0.921875 -4.234375 0.921875 -5.265625 C 0.921875 -6.285156 1.148438 -7.203125 1.609375 -8.015625 C 2.078125 -8.828125 2.722656 -9.457031 3.546875 -9.90625 C 4.367188 -10.363281 5.300781 -10.59375 6.34375 -10.59375 C 7.25 -10.59375 8.054688 -10.414062 8.765625 -10.0625 C 9.484375 -9.71875 10.046875 -9.203125 10.453125 -8.515625 L 9.40625 -7.796875 C 9.050781 -8.316406 8.609375 -8.707031 8.078125 -8.96875 C 7.546875 -9.226562 6.96875 -9.359375 6.34375 -9.359375 C 5.582031 -9.359375 4.894531 -9.1875 4.28125 -8.84375 C 3.675781 -8.507812 3.203125 -8.023438 2.859375 -7.390625 C 2.523438 -6.765625 2.359375 -6.054688 2.359375 -5.265625 C 2.359375 -4.453125 2.523438 -3.734375 2.859375 -3.109375 C 3.203125 -2.492188 3.675781 -2.015625 4.28125 -1.671875 C 4.894531 -1.328125 5.582031 -1.15625 6.34375 -1.15625 C 6.96875 -1.15625 7.546875 -1.28125 8.078125 -1.53125 C 8.609375 -1.789062 9.050781 -2.179688 9.40625 -2.703125 L 10.453125 -1.984375 C 10.046875 -1.296875 9.484375 -0.773438 8.765625 -0.421875 C 8.046875 -0.078125 7.238281 0.09375 6.34375 0.09375 Z M 6.34375 0.09375 "/></g></g></g><g fill="#000000" fill-opacity="1"><g transform="translate(235.968807, 87.653301)"><g><path d="M 6.28125 0.09375 C 5.269531 0.09375 4.351562 -0.132812 3.53125 -0.59375 C 2.71875 -1.050781 2.078125 -1.6875 1.609375 -2.5 C 1.148438 -3.3125 0.921875 -4.234375 0.921875 -5.265625 C 0.921875 -6.285156 1.148438 -7.203125 1.609375 -8.015625 C 2.078125 -8.828125 2.71875 -9.457031 3.53125 -9.90625 C 4.351562 -10.363281 5.269531 -10.59375 6.28125 -10.59375 C 7.289062 -10.59375 8.203125 -10.363281 9.015625 -9.90625 C 9.828125 -9.457031 10.460938 -8.828125 10.921875 -8.015625 C 11.390625 -7.203125 11.625 -6.285156 11.625 -5.265625 C 11.625 -4.234375 11.390625 -3.3125 10.921875 -2.5 C 10.460938 -1.6875 9.828125 -1.050781 9.015625 -0.59375 C 8.203125 -0.132812 7.289062 0.09375 6.28125 0.09375 Z M 6.28125 -1.15625 C 7.03125 -1.15625 7.703125 -1.328125 8.296875 -1.671875 C 8.890625 -2.015625 9.351562 -2.5 9.6875 -3.125 C 10.019531 -3.75 10.1875 -4.460938 10.1875 -5.265625 C 10.1875 -6.054688 10.019531 -6.765625 9.6875 -7.390625 C 9.351562 -8.023438 8.890625 -8.507812 8.296875 -8.84375 C 7.703125 -9.1875 7.03125 -9.359375 6.28125 -9.359375 C 5.53125 -9.359375 4.859375 -9.1875 4.265625 -8.84375 C 3.671875 -8.507812 3.203125 -8.023438 2.859375 -7.390625 C 2.523438 -6.765625 2.359375 -6.054688 2.359375 -5.265625 C 2.359375 -4.460938 2.523438 -3.75 2.859375 -3.125 C 3.203125 -2.5 3.671875 -2.015625 4.265625 -1.671875 C 4.859375 -1.328125 5.53125 -1.15625 6.28125 -1.15625 Z M 6.28125 -1.15625 "/></g></g></g><g fill="#000000" fill-opacity="1"><g transform="translate(248.503863, 87.653301)"><g><path d="M 15.09375 -10.59375 C 16.414062 -10.59375 17.453125 -10.210938 18.203125 -9.453125 C 18.960938 -8.691406 19.34375 -7.570312 19.34375 -6.09375 L 19.34375 0 L 17.921875 0 L 17.921875 -5.953125 C 17.921875 -7.046875 17.65625 -7.878906 17.125 -8.453125 C 16.601562 -9.023438 15.863281 -9.3125 14.90625 -9.3125 C 13.8125 -9.3125 12.945312 -8.972656 12.3125 -8.296875 C 11.6875 -7.628906 11.375 -6.703125 11.375 -5.515625 L 11.375 0 L 9.953125 0 L 9.953125 -5.953125 C 9.953125 -7.046875 9.6875 -7.878906 9.15625 -8.453125 C 8.632812 -9.023438 7.890625 -9.3125 6.921875 -9.3125 C 5.835938 -9.3125 4.976562 -8.972656 4.34375 -8.296875 C 3.71875 -7.628906 3.40625 -6.703125 3.40625 -5.515625 L 3.40625 0 L 1.984375 0 L 1.984375 -10.515625 L 3.34375 -10.515625 L 3.34375 -8.59375 C 3.71875 -9.238281 4.238281 -9.734375 4.90625 -10.078125 C 5.570312 -10.421875 6.335938 -10.59375 7.203125 -10.59375 C 8.078125 -10.59375 8.835938 -10.40625 9.484375 -10.03125 C 10.128906 -9.664062 10.613281 -9.113281 10.9375 -8.375 C 11.320312 -9.070312 11.878906 -9.613281 12.609375 -10 C 13.335938 -10.394531 14.164062 -10.59375 15.09375 -10.59375 Z M 15.09375 -10.59375 "/></g></g></g><g fill="#000000" fill-opacity="1"><g transform="translate(269.715497, 87.653301)"><g><path d="M 15.09375 -10.59375 C 16.414062 -10.59375 17.453125 -10.210938 18.203125 -9.453125 C 18.960938 -8.691406 19.34375 -7.570312 19.34375 -6.09375 L 19.34375 0 L 17.921875 0 L 17.921875 -5.953125 C 17.921875 -7.046875 17.65625 -7.878906 17.125 -8.453125 C 16.601562 -9.023438 15.863281 -9.3125 14.90625 -9.3125 C 13.8125 -9.3125 12.945312 -8.972656 12.3125 -8.296875 C 11.6875 -7.628906 11.375 -6.703125 11.375 -5.515625 L 11.375 0 L 9.953125 0 L 9.953125 -5.953125 C 9.953125 -7.046875 9.6875 -7.878906 9.15625 -8.453125 C 8.632812 -9.023438 7.890625 -9.3125 6.921875 -9.3125 C 5.835938 -9.3125 4.976562 -8.972656 4.34375 -8.296875 C 3.71875 -7.628906 3.40625 -6.703125 3.40625 -5.515625 L 3.40625 0 L 1.984375 0 L 1.984375 -10.515625 L 3.34375 -10.515625 L 3.34375 -8.59375 C 3.71875 -9.238281 4.238281 -9.734375 4.90625 -10.078125 C 5.570312 -10.421875 6.335938 -10.59375 7.203125 -10.59375 C 8.078125 -10.59375 8.835938 -10.40625 9.484375 -10.03125 C 10.128906 -9.664062 10.613281 -9.113281 10.9375 -8.375 C 11.320312 -9.070312 11.878906 -9.613281 12.609375 -10 C 13.335938 -10.394531 14.164062 -10.59375 15.09375 -10.59375 Z M 15.09375 -10.59375 "/></g></g></g><g fill="#000000" fill-opacity="1"><g transform="translate(290.927131, 87.653301)"><g><path d="M 11.140625 -4.8125 L 2.34375 -4.8125 C 2.414062 -3.726562 2.832031 -2.847656 3.59375 -2.171875 C 4.351562 -1.492188 5.316406 -1.15625 6.484375 -1.15625 C 7.128906 -1.15625 7.722656 -1.269531 8.265625 -1.5 C 8.816406 -1.738281 9.296875 -2.085938 9.703125 -2.546875 L 10.5 -1.625 C 10.03125 -1.0625 9.445312 -0.632812 8.75 -0.34375 C 8.050781 -0.0507812 7.28125 0.09375 6.4375 0.09375 C 5.351562 0.09375 4.394531 -0.132812 3.5625 -0.59375 C 2.726562 -1.050781 2.078125 -1.6875 1.609375 -2.5 C 1.148438 -3.3125 0.921875 -4.234375 0.921875 -5.265625 C 0.921875 -6.285156 1.144531 -7.203125 1.59375 -8.015625 C 2.039062 -8.828125 2.648438 -9.457031 3.421875 -9.90625 C 4.203125 -10.363281 5.082031 -10.59375 6.0625 -10.59375 C 7.03125 -10.59375 7.898438 -10.363281 8.671875 -9.90625 C 9.453125 -9.457031 10.0625 -8.828125 10.5 -8.015625 C 10.9375 -7.210938 11.15625 -6.296875 11.15625 -5.265625 Z M 6.0625 -9.375 C 5.050781 -9.375 4.203125 -9.050781 3.515625 -8.40625 C 2.828125 -7.757812 2.4375 -6.914062 2.34375 -5.875 L 9.796875 -5.875 C 9.703125 -6.914062 9.3125 -7.757812 8.625 -8.40625 C 7.9375 -9.050781 7.082031 -9.375 6.0625 -9.375 Z M 6.0625 -9.375 "/></g></g></g><g fill="#000000" fill-opacity="1"><g transform="translate(303.002364, 87.653301)"><g><path d="M 7.34375 -10.59375 C 8.65625 -10.59375 9.703125 -10.207031 10.484375 -9.4375 C 11.265625 -8.675781 11.65625 -7.5625 11.65625 -6.09375 L 11.65625 0 L 10.234375 0 L 10.234375 -5.953125 C 10.234375 -7.046875 9.957031 -7.878906 9.40625 -8.453125 C 8.863281 -9.023438 8.085938 -9.3125 7.078125 -9.3125 C 5.941406 -9.3125 5.046875 -8.972656 4.390625 -8.296875 C 3.734375 -7.628906 3.40625 -6.703125 3.40625 -5.515625 L 3.40625 0 L 1.984375 0 L 1.984375 -10.515625 L 3.34375 -10.515625 L 3.34375 -8.578125 C 3.726562 -9.222656 4.265625 -9.71875 4.953125 -10.0625 C 5.640625 -10.414062 6.4375 -10.59375 7.34375 -10.59375 Z M 7.34375 -10.59375 "/></g></g></g><g fill="#000000" fill-opacity="1"><g transform="translate(316.537027, 87.653301)"><g><path d="M 6.34375 0.09375 C 5.300781 0.09375 4.367188 -0.128906 3.546875 -0.578125 C 2.722656 -1.035156 2.078125 -1.671875 1.609375 -2.484375 C 1.148438 -3.304688 0.921875 -4.234375 0.921875 -5.265625 C 0.921875 -6.285156 1.148438 -7.203125 1.609375 -8.015625 C 2.078125 -8.828125 2.722656 -9.457031 3.546875 -9.90625 C 4.367188 -10.363281 5.300781 -10.59375 6.34375 -10.59375 C 7.25 -10.59375 8.054688 -10.414062 8.765625 -10.0625 C 9.484375 -9.71875 10.046875 -9.203125 10.453125 -8.515625 L 9.40625 -7.796875 C 9.050781 -8.316406 8.609375 -8.707031 8.078125 -8.96875 C 7.546875 -9.226562 6.96875 -9.359375 6.34375 -9.359375 C 5.582031 -9.359375 4.894531 -9.1875 4.28125 -8.84375 C 3.675781 -8.507812 3.203125 -8.023438 2.859375 -7.390625 C 2.523438 -6.765625 2.359375 -6.054688 2.359375 -5.265625 C 2.359375 -4.453125 2.523438 -3.734375 2.859375 -3.109375 C 3.203125 -2.492188 3.675781 -2.015625 4.28125 -1.671875 C 4.894531 -1.328125 5.582031 -1.15625 6.34375 -1.15625 C 6.96875 -1.15625 7.546875 -1.28125 8.078125 -1.53125 C 8.609375 -1.789062 9.050781 -2.179688 9.40625 -2.703125 L 10.453125 -1.984375 C 10.046875 -1.296875 9.484375 -0.773438 8.765625 -0.421875 C 8.046875 -0.078125 7.238281 0.09375 6.34375 0.09375 Z M 6.34375 0.09375 "/></g></g></g><g fill="#000000" fill-opacity="1"><g transform="translate(327.792589, 87.653301)"><g><path d="M 11.140625 -4.8125 L 2.34375 -4.8125 C 2.414062 -3.726562 2.832031 -2.847656 3.59375 -2.171875 C 4.351562 -1.492188 5.316406 -1.15625 6.484375 -1.15625 C 7.128906 -1.15625 7.722656 -1.269531 8.265625 -1.5 C 8.816406 -1.738281 9.296875 -2.085938 9.703125 -2.546875 L 10.5 -1.625 C 10.03125 -1.0625 9.445312 -0.632812 8.75 -0.34375 C 8.050781 -0.0507812 7.28125 0.09375 6.4375 0.09375 C 5.351562 0.09375 4.394531 -0.132812 3.5625 -0.59375 C 2.726562 -1.050781 2.078125 -1.6875 1.609375 -2.5 C 1.148438 -3.3125 0.921875 -4.234375 0.921875 -5.265625 C 0.921875 -6.285156 1.144531 -7.203125 1.59375 -8.015625 C 2.039062 -8.828125 2.648438 -9.457031 3.421875 -9.90625 C 4.203125 -10.363281 5.082031 -10.59375 6.0625 -10.59375 C 7.03125 -10.59375 7.898438 -10.363281 8.671875 -9.90625 C 9.453125 -9.457031 10.0625 -8.828125 10.5 -8.015625 C 10.9375 -7.210938 11.15625 -6.296875 11.15625 -5.265625 Z M 6.0625 -9.375 C 5.050781 -9.375 4.203125 -9.050781 3.515625 -8.40625 C 2.828125 -7.757812 2.4375 -6.914062 2.34375 -5.875 L 9.796875 -5.875 C 9.703125 -6.914062 9.3125 -7.757812 8.625 -8.40625 C 7.9375 -9.050781 7.082031 -9.375 6.0625 -9.375 Z M 6.0625 -9.375 "/></g></g></g><g fill="#000000" fill-opacity="1"><g transform="translate(339.867821, 87.653301)"><g><path d="M 3.34375 -8.453125 C 3.675781 -9.160156 4.171875 -9.691406 4.828125 -10.046875 C 5.484375 -10.410156 6.300781 -10.59375 7.28125 -10.59375 L 7.28125 -9.21875 L 6.9375 -9.234375 C 5.832031 -9.234375 4.96875 -8.894531 4.34375 -8.21875 C 3.71875 -7.539062 3.40625 -6.585938 3.40625 -5.359375 L 3.40625 0 L 1.984375 0 L 1.984375 -10.515625 L 3.34375 -10.515625 Z M 3.34375 -8.453125 "/></g></g></g></svg>